<svg width="303" height="40" fill="none" xmlns="http://www.w3.org/2000/svg"><path d="M100.387.95H295.54c3.857 0 6.984 3.114 6.984 6.957l.013 25.38c.002 3.607-2.933 6.531-6.552 6.531H114.436c-6.298 0-11.896-3.992-13.927-9.93l-6.744-19.716C92.215 5.649 95.59.95 100.387.95z" fill="url(#paint0_linear)"/><path d="M111.843 22.254c.667 2.084 2.313 3.5 4.759 3.5 1.734 0 3.113-.71 3.957-1.904l4.891 2.392c-1.779 2.97-4.936 4.918-8.848 4.918-6.18 0-10.849-4.873-10.849-11.031s4.446-10.987 10.627-10.987c6.135 0 9.914 4.829 9.914 10.987 0 .754-.045 1.46-.177 2.125h-14.274zm-.045-4.122h8.893c-.489-2.125-1.823-3.634-4.314-3.634-2.488.003-4.044 1.509-4.579 3.635zm31.303 5.714l4.892 2.392c-1.779 2.969-4.937 4.918-8.849 4.918-6.18 0-10.849-4.874-10.849-11.031 0-6.158 4.669-10.986 10.849-10.986 3.912 0 7.07 1.949 8.849 4.918l-4.892 2.347c-.844-1.152-2.178-1.904-3.957-1.904-3.202 0-5.023 2.436-5.023 5.627s1.823 5.625 5.023 5.625c1.779 0 3.113-.71 3.957-1.906zm27.702-3.721c0 6.157-4.669 11.03-10.849 11.03-6.181 0-10.85-4.873-10.85-11.03 0-6.158 4.669-10.986 10.85-10.986 6.18 0 10.849 4.828 10.849 10.986zm-5.781 0c0-3.191-1.868-5.628-5.068-5.628-3.203 0-5.069 2.437-5.069 5.628 0 3.19 1.869 5.625 5.069 5.625 3.202.002 5.068-2.434 5.068-5.625zm39.174-.931V30.8h-5.915V18.972c0-2.79-1.067-4.34-3.203-4.34-2.135 0-3.29 1.595-3.29 4.562V30.8h-5.912V18.972c0-2.79-1.067-4.34-3.203-4.34-2.091 0-3.29 1.595-3.29 4.562V30.8h-5.913V9.447h5.913v1.862c1.289-1.33 2.98-2.17 4.981-2.17 2.536 0 4.447.93 5.691 2.747a8.223 8.223 0 016.18-2.747c4.936 0 7.961 3.5 7.961 10.055zm9.828 9.128c0 1.727-1.424 3.101-3.158 3.101-1.689 0-3.113-1.373-3.113-3.1 0-1.728 1.424-3.102 3.113-3.102 1.734 0 3.158 1.374 3.158 3.101zm17.029-4.476l4.891 2.392c-1.778 2.969-4.936 4.918-8.848 4.918-6.18 0-10.849-4.874-10.849-11.031 0-6.158 4.669-10.986 10.849-10.986 3.912 0 7.07 1.949 8.848 4.918l-4.891 2.347c-.844-1.152-2.178-1.904-3.957-1.904-3.202 0-5.023 2.436-5.023 5.627s1.823 5.625 5.023 5.625c1.779 0 3.113-.71 3.957-1.906zm27.701-3.721c0 6.157-4.669 11.03-10.849 11.03-6.18 0-10.849-4.873-10.849-11.03 0-6.158 4.669-10.986 10.849-10.986 6.18 0 10.849 4.828 10.849 10.986zm-5.781 0c0-3.191-1.868-5.628-5.068-5.628-3.2 0-5.069 2.437-5.069 5.628 0 3.19 1.869 5.625 5.069 5.625s5.068-2.434 5.068-5.625zm39.175-.931V30.8h-5.913V18.972c0-2.79-1.067-4.34-3.203-4.34-2.135 0-3.289 1.595-3.289 4.562V30.8h-5.913V18.972c0-2.79-1.067-4.34-3.203-4.34-2.091 0-3.29 1.595-3.29 4.562V30.8h-5.913V9.447h5.913v1.862c1.289-1.33 2.98-2.17 4.981-2.17 2.536 0 4.447.93 5.691 2.747a8.223 8.223 0 016.18-2.747c4.934 0 7.959 3.5 7.959 10.055zM30.214 36.537c-.63.418-1.486.888-2.57 1.41-1.085.524-2.354.96-3.805 1.308-1.451.348-3.035.522-4.746.522-2.938-.035-5.588-.557-7.947-1.568-2.36-1.01-4.364-2.387-6.005-4.129a18.534 18.534 0 01-3.805-6.036C.445 25.762 0 23.332 0 20.754c0-2.823.462-5.426 1.389-7.816.927-2.387 2.228-4.46 3.91-6.22a17.731 17.731 0 015.952-4.102c2.291-.975 4.799-1.463 7.527-1.463 2.273 0 4.337.306 6.19.913 1.854.61 3.445 1.332 4.774 2.168l-2.046 4.704c-1.05-.696-2.318-1.359-3.805-1.986-1.486-.627-3.14-.94-4.956-.94-1.853 0-3.602.365-5.246 1.097a13.579 13.579 0 00-4.354 3.084 14.707 14.707 0 00-2.965 4.625c-.717 1.76-1.074 3.65-1.074 5.672 0 2.056.322 3.965.97 5.725.646 1.76 1.573 3.285 2.78 4.575 1.206 1.289 2.665 2.3 4.379 3.031 1.713.732 3.637 1.098 5.77 1.098 1.924 0 3.637-.296 5.141-.889 1.504-.592 2.745-1.254 3.725-1.986l2.153 4.493zM48.887 1.568c2.763 0 5.123.463 7.082 1.384 1.958.923 3.47 2.257 4.536 3.997 1.067 1.742 1.601 3.85 1.601 6.325 0 1.498-.227 2.972-.681 4.418a11.15 11.15 0 01-2.176 3.92c-.997 1.168-2.301 2.1-3.91 2.795-1.608.697-3.567 1.046-5.875 1.046H43.85v13.903h-5.089V1.568h10.125zm.524 19.026c1.504 0 2.746-.244 3.725-.732.98-.488 1.749-1.105 2.308-1.856a7.46 7.46 0 001.207-2.378c.245-.836.367-1.585.367-2.247a8.28 8.28 0 00-.367-2.377 6.182 6.182 0 00-1.234-2.248c-.577-.68-1.33-1.237-2.256-1.672-.927-.436-2.07-.655-3.435-.655h-5.875v14.165h5.56zm40.764 18.765h5.823L79.47 0h-.314L62.579 39.359h4.983l4.075-9.931H86.26l3.915 9.93zM73.438 25.037l5.655-13.792 5.436 13.792H73.438z" fill="#fff"/><defs><linearGradient id="paint0_linear" x1="91.755" y1="88.616" x2="384.222" y2="-100.368" gradientUnits="userSpaceOnUse"><stop offset="0" stop-color="#F66F6C"/><stop offset="1" stop-color="#FCA3C1"/></linearGradient></defs></svg>