<svg width="223" height="60" fill="none" xmlns="http://www.w3.org/2000/svg"><path d="M0 14.66c0-3.978 1.475-7.387 4.312-10.342C7.148 1.478 10.665 0 14.637 0c3.97 0 7.375 1.477 10.211 4.318 2.837 2.955 4.312 6.364 4.312 10.455 0 4.09-1.475 7.613-4.312 10.454-2.836 2.841-6.354 4.319-10.438 4.319-3.631 0-6.808-1.25-9.645-3.864C1.588 22.955 0 19.205 0 14.659zm4.312.113c0 3.182 1.02 5.682 3.063 7.727 2.042 2.046 4.425 3.068 7.148 3.068 2.95 0 5.333-1.023 7.375-3.068 2.043-2.045 3.064-4.66 3.064-7.614 0-3.068-1.021-5.568-2.95-7.613-1.93-2.046-4.425-3.068-7.375-3.068S9.304 5.227 7.262 7.273c-2.043 1.932-2.95 4.432-2.95 7.5zM48.335 4.659h-9.758v6.818h9.418v4.091h-9.418v13.523H34.38V.68h13.956v3.98zm18.721 0H57.3v6.818h9.417v4.091H57.3v13.523h-4.2V.68h13.956v3.98zM57.3 32.177v23.618h8.169v3.978H53.1V32.177h4.2zM90.429.795h13.957V14.66H90.43V.795zm-15.203 0h13.956V14.66H75.225V.795zm0 15h13.956V29.66H75.225V15.795zm0 15h13.956V44.66H75.225V30.795zm0 15.114h13.956v13.864H75.225V45.909zm15.204 0h13.956v13.864H90.43V45.909zm15.09 0h13.956v13.864H105.52V45.909zm0-45.114h13.956V14.66H105.52V.795zm0 20.796h13.956v13.864H105.52V21.59zm-15.09 0h13.956v13.864H90.43V21.59zm55.142 31.477h-11.913l-3.064 6.705h-4.538l13.842-29.546 13.275 29.546h-4.652l-2.95-6.705zm-1.702-3.863l-4.084-9.432-4.312 9.431h8.396zm12.708 10.681V32.16h5.9c2.837 0 4.993.227 6.695.796a12.453 12.453 0 014.765 2.727c2.837 2.613 4.312 6.023 4.312 10.34 0 4.319-1.475 7.728-4.539 10.342-1.475 1.363-3.063 2.272-4.765 2.727-1.589.568-3.745.795-6.581.795h-5.787zm4.198-3.977h1.929c1.929 0 3.518-.227 4.766-.568a10.484 10.484 0 003.404-2.046c2.042-1.931 3.063-4.318 3.063-7.386 0-3.068-1.021-5.568-3.063-7.386-1.816-1.705-4.539-2.5-8.17-2.5h-1.929v19.886zM198.9 36.023h-11.233v6.704h10.892v3.978h-10.892v9.318H198.9V60h-15.431V32.273H198.9v3.75zm14.977 12.045l8.623 11.818h-5.106l-7.942-11.363h-.794v11.363h-4.199V32.16h4.993c3.631 0 6.354.682 7.942 2.046 1.816 1.477 2.723 3.522 2.723 6.022 0 1.932-.567 3.637-1.702 5.114-1.134 1.364-2.723 2.273-4.538 2.727zm-5.219-3.182h1.361c3.971 0 6.014-1.477 6.014-4.545 0-2.841-1.929-4.205-5.787-4.205h-1.475v8.75h-.113zM138.651 17.16l8.623 11.818h-5.105l-7.943-11.363h-.794v11.363h-4.198V1.25h4.879c3.631 0 6.354.682 7.942 2.045 1.815 1.591 2.723 3.523 2.723 6.137 0 1.932-.567 3.636-1.702 5.114-1.021 1.363-2.609 2.272-4.425 2.613zm-5.219-3.182h1.361c3.972 0 5.901-1.477 5.901-4.545 0-2.841-1.929-4.318-5.787-4.318h-1.475v8.863z" fill="#fff"/><path d="M0 14.66c0-3.978 1.475-7.387 4.312-10.342C7.148 1.478 10.665 0 14.637 0c3.97 0 7.375 1.477 10.211 4.318 2.837 2.955 4.312 6.364 4.312 10.455 0 4.09-1.475 7.613-4.312 10.454-2.836 2.841-6.354 4.319-10.438 4.319-3.631 0-6.808-1.25-9.645-3.864C1.588 22.955 0 19.205 0 14.659zm4.312.113c0 3.182 1.02 5.682 3.063 7.727 2.042 2.046 4.425 3.068 7.148 3.068 2.95 0 5.333-1.023 7.375-3.068 2.043-2.045 3.064-4.66 3.064-7.614 0-3.068-1.021-5.568-2.95-7.613-1.93-2.046-4.425-3.068-7.375-3.068S9.304 5.227 7.262 7.273c-2.043 1.932-2.95 4.432-2.95 7.5zM48.335 4.659h-9.758v6.818h9.418v4.091h-9.418v13.523H34.38V.68h13.956v3.98zm18.721 0H57.3v6.818h9.417v4.091H57.3v13.523h-4.2V.68h13.956v3.98zM57.3 32.177v23.618h8.169v3.978H53.1V32.177h4.2zM90.429.795h13.957V14.66H90.43V.795zm-15.203 0h13.956V14.66H75.225V.795zm0 15h13.956V29.66H75.225V15.795zm0 15h13.956V44.66H75.225V30.795zm0 15.114h13.956v13.864H75.225V45.909zm15.204 0h13.956v13.864H90.43V45.909zm15.09 0h13.956v13.864H105.52V45.909zm0-45.114h13.956V14.66H105.52V.795zm0 20.796h13.956v13.864H105.52V21.59zm-15.09 0h13.956v13.864H90.43V21.59zm55.142 31.477h-11.913l-3.064 6.705h-4.538l13.842-29.546 13.275 29.546h-4.652l-2.95-6.705zm-1.702-3.863l-4.084-9.432-4.312 9.431h8.396zm12.708 10.681V32.16h5.9c2.837 0 4.993.227 6.695.796a12.453 12.453 0 014.765 2.727c2.837 2.613 4.312 6.023 4.312 10.34 0 4.319-1.475 7.728-4.539 10.342-1.475 1.363-3.063 2.272-4.765 2.727-1.589.568-3.745.795-6.581.795h-5.787zm4.198-3.977h1.929c1.929 0 3.518-.227 4.766-.568a10.484 10.484 0 003.404-2.046c2.042-1.931 3.063-4.318 3.063-7.386 0-3.068-1.021-5.568-3.063-7.386-1.816-1.705-4.539-2.5-8.17-2.5h-1.929v19.886zM198.9 36.023h-11.233v6.704h10.892v3.978h-10.892v9.318H198.9V60h-15.431V32.273H198.9v3.75zm14.977 12.045l8.623 11.818h-5.106l-7.942-11.363h-.794v11.363h-4.199V32.16h4.993c3.631 0 6.354.682 7.942 2.046 1.816 1.477 2.723 3.522 2.723 6.022 0 1.932-.567 3.637-1.702 5.114-1.134 1.364-2.723 2.273-4.538 2.727zm-5.219-3.182h1.361c3.971 0 6.014-1.477 6.014-4.545 0-2.841-1.929-4.205-5.787-4.205h-1.475v8.75h-.113zM138.651 17.16l8.623 11.818h-5.105l-7.943-11.363h-.794v11.363h-4.198V1.25h4.879c3.631 0 6.354.682 7.942 2.045 1.815 1.591 2.723 3.523 2.723 6.137 0 1.932-.567 3.636-1.702 5.114-1.021 1.363-2.609 2.272-4.425 2.613zm-5.219-3.182h1.361c3.972 0 5.901-1.477 5.901-4.545 0-2.841-1.929-4.318-5.787-4.318h-1.475v8.863z" fill="#fff"/></svg>