<svg width="108" height="108" fill="none" xmlns="http://www.w3.org/2000/svg"><path fill-rule="evenodd" clip-rule="evenodd" d="M52.965 2.37a1.5 1.5 0 01-1.425 1.57c-10.719.524-21.297 4.47-29.962 11.837a1.5 1.5 0 01-1.944-2.286C28.821 5.682 40.037 1.499 51.394.945a1.5 1.5 0 011.571 1.425zm29.181 8.321a1.5 1.5 0 012.088-.377c.238.165.475.332.71.502a1.5 1.5 0 01-1.75 2.436c-.222-.16-.446-.318-.67-.473a1.5 1.5 0 01-.378-2.088zm4.105 2.972a1.5 1.5 0 012.115-.171 53.796 53.796 0 013.195 2.947 1.5 1.5 0 11-2.122 2.122 50.826 50.826 0 00-3.016-2.784 1.5 1.5 0 01-.172-2.114zm-67.69 2.776a1.5 1.5 0 010 2.122 50.795 50.795 0 00-2.784 3.017 1.5 1.5 0 01-2.285-1.944 53.765 53.765 0 012.947-3.195 1.5 1.5 0 012.122 0zm73.833 3.024a1.5 1.5 0 012.114.171c7.811 9.187 11.993 20.403 12.547 31.76a1.5 1.5 0 11-2.996.146c-.524-10.719-4.47-21.297-11.837-29.962a1.5 1.5 0 01.172-2.115zm-79.485 3.25a1.5 1.5 0 01.343 2.093c-.16.222-.318.446-.473.67a1.5 1.5 0 11-2.465-1.71c.165-.238.332-.475.502-.71a1.5 1.5 0 012.093-.344zM2.369 55.034a1.5 1.5 0 011.572 1.425c.524 10.719 4.47 21.297 11.837 29.962a1.5 1.5 0 01-2.286 1.944C5.682 79.179 1.499 67.963.945 56.606a1.5 1.5 0 011.425-1.571zm94.94 27.111a1.5 1.5 0 01.377 2.088c-.165.238-.332.475-.502.71a1.5 1.5 0 01-2.436-1.75c.16-.222.317-.446.473-.67a1.5 1.5 0 012.088-.378zm-2.972 4.105a1.5 1.5 0 01.171 2.115 53.83 53.83 0 01-2.947 3.195 1.5 1.5 0 11-2.122-2.122 50.826 50.826 0 002.784-3.016 1.5 1.5 0 012.114-.172zm-77.898 3.19a1.5 1.5 0 012.122 0 50.795 50.795 0 003.017 2.784 1.5 1.5 0 01-1.944 2.285 53.8 53.8 0 01-3.195-2.947 1.5 1.5 0 010-2.122zm72.098 2.955a1.5 1.5 0 01-.171 2.114c-9.187 7.811-20.403 11.993-31.76 12.547a1.5 1.5 0 11-.146-2.996c10.719-.524 21.297-4.47 29.962-11.837a1.5 1.5 0 012.115.172zM22.712 95.09a1.5 1.5 0 012.094-.343c.222.16.446.317.67.473a1.5 1.5 0 11-1.71 2.465 52.52 52.52 0 01-.71-.502 1.5 1.5 0 01-.344-2.093z" fill="url(#paint0_linear)" fill-opacity=".72"/><path d="M81.635 77.063A4.37 4.37 0 0086 72.698V28.25A6.257 6.257 0 0079.75 22h-51.5A6.257 6.257 0 0022 28.25v44.448a4.37 4.37 0 004.365 4.365h1.385V83.5h-4.5a1.25 1.25 0 000 2.5h61.5a1.25 1.25 0 000-2.5h-4.5v-6.437h1.385zM24.5 28.25a3.754 3.754 0 013.75-3.75h51.5a3.754 3.754 0 013.75 3.75V31H24.626c-.043 0-.085.002-.126.006V28.25zM35.75 83.5h-5.5V72.25h5.5V83.5zm14 0h-5.5V58.429h5.5V83.5zm14 0h-5.5V69h5.5v14.5zM79 54.062h-8c-.69 0-1.25.56-1.25 1.25v6.313a1.25 1.25 0 002.5 0v-5.063h5.5V83.5h-5.5V70.031a1.25 1.25 0 00-2.5 0V83.5h-3.5V67.75c0-.69-.56-1.25-1.25-1.25h-8c-.69 0-1.25.56-1.25 1.25V83.5h-3.5V57.179c0-.69-.56-1.25-1.25-1.25h-8c-.69 0-1.25.56-1.25 1.25V83.5h-3.5V71c0-.69-.56-1.25-1.25-1.25h-8c-.69 0-1.25.56-1.25 1.25v3.563h-1.385a1.867 1.867 0 01-1.865-1.865V33.494c.041.004.083.006.125.006H83.5v39.198a1.867 1.867 0 01-1.865 1.865H80.25v-19.25c0-.69-.56-1.25-1.25-1.25z" fill="url(#paint1_linear)"/><path d="M78 26.5H49.758a1.25 1.25 0 000 2.5H78a1.25 1.25 0 000-2.5z" fill="url(#paint2_linear)"/><path d="M35.884 26.866A1.26 1.26 0 0035 26.5c-.329 0-.651.134-.884.366a1.26 1.26 0 00-.366.884c0 .329.134.651.366.884.233.232.555.366.884.366.329 0 .651-.134.884-.366.232-.233.366-.555.366-.884a1.26 1.26 0 00-.366-.884z" fill="url(#paint3_linear)"/><path d="M30.884 26.866A1.26 1.26 0 0030 26.5c-.329 0-.651.134-.884.366a1.26 1.26 0 00-.366.884c0 .329.134.651.366.884.233.232.555.366.884.366.329 0 .651-.134.884-.366.232-.233.366-.555.366-.884a1.26 1.26 0 00-.366-.884z" fill="url(#paint4_linear)"/><path d="M40.884 26.866A1.257 1.257 0 0040 26.5c-.329 0-.651.134-.884.366a1.26 1.26 0 00-.366.884c0 .329.134.651.366.884.233.232.555.366.884.366.329 0 .651-.134.884-.366.232-.233.366-.555.366-.884a1.26 1.26 0 00-.366-.884z" fill="url(#paint5_linear)"/><path d="M71.884 65.196A1.254 1.254 0 0071 64.83a1.254 1.254 0 00-1.25 1.25c0 .329.134.651.366.884.233.232.555.366.884.366.329 0 .651-.134.884-.366a1.26 1.26 0 00.366-.884c0-.33-.134-.651-.366-.884z" fill="url(#paint6_linear)"/><path d="M75 38.992a4.505 4.505 0 00-4.5 4.5c0 .986.32 1.898.859 2.64l-8.303 8.303a4.472 4.472 0 00-2.172-.56c-.71 0-1.38.166-1.978.46l-8.67-8.67c.357-.645.56-1.385.56-2.173 0-2.481-2.018-4.5-4.5-4.5a4.505 4.505 0 00-4.5 4.5c0 .868.248 1.678.674 2.366l-7.381 7.381a4.472 4.472 0 00-2.172-.56 4.505 4.505 0 00-4.5 4.5c0 2.481 2.018 4.5 4.5 4.5 2.481 0 4.5-2.019 4.5-4.5 0-.788-.204-1.528-.56-2.172l7.47-7.47a4.473 4.473 0 001.97.455 4.47 4.47 0 002.171-.56l8.585 8.585a4.473 4.473 0 00-.67 2.358c0 2.481 2.02 4.5 4.5 4.5 2.482 0 4.5-2.019 4.5-4.5 0-.788-.203-1.528-.56-2.172l8.526-8.526a4.471 4.471 0 001.65.315c2.482 0 4.5-2.018 4.5-4.5 0-2.481-2.018-4.5-4.5-4.5zM32.917 59.18c-1.103 0-2-.897-2-2s.897-2 2-2 2 .897 2 2-.897 2-2 2zm13.38-13.687c-1.103 0-2-.897-2-2 0-1.102.897-2 2-2 1.102 0 2 .898 2 2 0 1.103-.898 2-2 2zm14.587 14.883c-1.103 0-2-.897-2-2s.897-2 2-2 2 .897 2 2-.897 2-2 2zM75 45.492c-1.103 0-2-.897-2-2 0-1.102.897-2 2-2s2 .898 2 2c0 1.103-.897 2-2 2z" fill="url(#paint7_linear)"/><path d="M40.541 38.119a1.262 1.262 0 00-.883-.367c-.33 0-.653.134-.886.367a1.258 1.258 0 00-.364.883c0 .33.132.652.364.884.234.233.556.366.886.366.328 0 .65-.133.883-.366a1.26 1.26 0 00.367-.884c0-.328-.134-.65-.367-.883z" fill="url(#paint8_linear)"/><path d="M35 37.753h-6a1.25 1.25 0 000 2.5h6a1.25 1.25 0 000-2.5z" fill="url(#paint9_linear)"/><path d="M35 43.753h-6a1.25 1.25 0 000 2.5h6a1.25 1.25 0 000-2.5z" fill="url(#paint10_linear)"/><defs><linearGradient id="paint0_linear" x1="17.5" y1="17.5" x2="90.5" y2="90.5" gradientUnits="userSpaceOnUse"><stop stop-color="#FFD53F"/><stop offset="1" stop-color="#FF9E57"/></linearGradient><linearGradient id="paint1_linear" x1="54" y1="28.4" x2="54" y2="79.6" gradientUnits="userSpaceOnUse"><stop stop-color="#387AF9"/><stop offset="1" stop-color="#1A4BF8"/></linearGradient><linearGradient id="paint2_linear" x1="54" y1="28.4" x2="54" y2="79.6" gradientUnits="userSpaceOnUse"><stop stop-color="#387AF9"/><stop offset="1" stop-color="#1A4BF8"/></linearGradient><linearGradient id="paint3_linear" x1="54" y1="28.4" x2="54" y2="79.6" gradientUnits="userSpaceOnUse"><stop stop-color="#387AF9"/><stop offset="1" stop-color="#1A4BF8"/></linearGradient><linearGradient id="paint4_linear" x1="54" y1="28.4" x2="54" y2="79.6" gradientUnits="userSpaceOnUse"><stop stop-color="#387AF9"/><stop offset="1" stop-color="#1A4BF8"/></linearGradient><linearGradient id="paint5_linear" x1="54" y1="28.4" x2="54" y2="79.6" gradientUnits="userSpaceOnUse"><stop stop-color="#387AF9"/><stop offset="1" stop-color="#1A4BF8"/></linearGradient><linearGradient id="paint6_linear" x1="54" y1="28.4" x2="54" y2="79.6" gradientUnits="userSpaceOnUse"><stop stop-color="#387AF9"/><stop offset="1" stop-color="#1A4BF8"/></linearGradient><linearGradient id="paint7_linear" x1="54" y1="28.4" x2="54" y2="79.6" gradientUnits="userSpaceOnUse"><stop stop-color="#387AF9"/><stop offset="1" stop-color="#1A4BF8"/></linearGradient><linearGradient id="paint8_linear" x1="54" y1="28.4" x2="54" y2="79.6" gradientUnits="userSpaceOnUse"><stop stop-color="#387AF9"/><stop offset="1" stop-color="#1A4BF8"/></linearGradient><linearGradient id="paint9_linear" x1="54" y1="28.4" x2="54" y2="79.6" gradientUnits="userSpaceOnUse"><stop stop-color="#387AF9"/><stop offset="1" stop-color="#1A4BF8"/></linearGradient><linearGradient id="paint10_linear" x1="54" y1="28.4" x2="54" y2="79.6" gradientUnits="userSpaceOnUse"><stop stop-color="#387AF9"/><stop offset="1" stop-color="#1A4BF8"/></linearGradient></defs></svg>