<svg width="108" height="108" fill="none" xmlns="http://www.w3.org/2000/svg"><path fill-rule="evenodd" clip-rule="evenodd" d="M52.965 2.37a1.5 1.5 0 01-1.425 1.57c-10.719.524-21.297 4.47-29.962 11.837a1.5 1.5 0 01-1.944-2.286C28.821 5.682 40.037 1.499 51.394.945a1.5 1.5 0 011.571 1.425zm29.181 8.321a1.5 1.5 0 012.088-.377c.238.165.475.332.71.502a1.5 1.5 0 01-1.75 2.436c-.222-.16-.446-.318-.67-.473a1.5 1.5 0 01-.378-2.088zm4.105 2.972a1.5 1.5 0 012.115-.171 53.796 53.796 0 013.195 2.947 1.5 1.5 0 11-2.122 2.122 50.826 50.826 0 00-3.016-2.784 1.5 1.5 0 01-.172-2.114zm-67.69 2.776a1.5 1.5 0 010 2.122 50.795 50.795 0 00-2.784 3.017 1.5 1.5 0 01-2.285-1.944 53.765 53.765 0 012.947-3.195 1.5 1.5 0 012.122 0zm73.833 3.024a1.5 1.5 0 012.114.171c7.811 9.187 11.993 20.403 12.547 31.76a1.5 1.5 0 11-2.996.146c-.524-10.719-4.47-21.297-11.837-29.962a1.5 1.5 0 01.172-2.115zm-79.485 3.25a1.5 1.5 0 01.343 2.093c-.16.222-.318.446-.473.67a1.5 1.5 0 11-2.465-1.71c.165-.238.332-.475.502-.71a1.5 1.5 0 012.093-.344zM2.369 55.034a1.5 1.5 0 011.572 1.425c.524 10.719 4.47 21.297 11.837 29.962a1.5 1.5 0 01-2.286 1.944C5.682 79.179 1.499 67.963.945 56.606a1.5 1.5 0 011.425-1.571zm94.94 27.111a1.5 1.5 0 01.377 2.088c-.165.238-.332.475-.502.71a1.5 1.5 0 01-2.436-1.75c.16-.222.317-.446.473-.67a1.5 1.5 0 012.088-.378zm-2.972 4.105a1.5 1.5 0 01.171 2.115 53.83 53.83 0 01-2.947 3.195 1.5 1.5 0 11-2.122-2.122 50.826 50.826 0 002.784-3.016 1.5 1.5 0 012.114-.172zm-77.898 3.19a1.5 1.5 0 012.122 0 50.795 50.795 0 003.017 2.784 1.5 1.5 0 01-1.944 2.285 53.8 53.8 0 01-3.195-2.947 1.5 1.5 0 010-2.122zm72.098 2.955a1.5 1.5 0 01-.171 2.114c-9.187 7.811-20.403 11.993-31.76 12.547a1.5 1.5 0 11-.146-2.996c10.719-.524 21.297-4.47 29.962-11.837a1.5 1.5 0 012.115.172zM22.712 95.09a1.5 1.5 0 012.094-.343c.222.16.446.317.67.473a1.5 1.5 0 11-1.71 2.465 52.52 52.52 0 01-.71-.502 1.5 1.5 0 01-.344-2.093z" fill="url(#paint0_linear)" fill-opacity=".72"/><path d="M33.715 57.249v2.166h14.482c1.193 0 1.518.324 1.518 1.462v12.02c0 1.083-.325 1.408-1.464 1.408H33.769v9.583h7.323v2.058c-.217 0-.38.054-.597.054H33.01c-1.139 0-1.464-.325-1.464-1.462V74.359c-.271 0-.488-.054-.705-.054h-5.424c-.976 0-1.41-.38-1.41-1.354V60.714c0-.975.38-1.354 1.356-1.354h6.183v-2.11c-.271 0-.543-.054-.76-.054H23.41c-1.085 0-1.41-.325-1.41-1.408v-18.41c0-1.19.325-1.516 1.519-1.516H31.6V23.463c0-1.191.325-1.462 1.464-1.462h32.272c.596 0 1.03.162 1.464.541 3.037 3.087 6.129 6.119 9.166 9.205.271.27.434.812.434 1.246.054 1.732 0 3.519 0 5.252v.758c.271 0 .488.054.705.054h7.485c1.03 0 1.41.325 1.41 1.408v12.074c0 1.083-.325 1.408-1.464 1.408H76.4v7.472h8.136c1.084 0 1.41.325 1.41 1.462v17.435c0 1.029-.326 1.353-1.356 1.353h-8.245v2.978c0 .92-.379 1.3-1.247 1.3H47.546v-2.058h26.576v-2.22H53.295c-1.302 0-1.573-.27-1.573-1.57V62.934c0-1.191.325-1.516 1.573-1.516h20.827v-7.472H61.756c-1.139 0-1.465-.325-1.465-1.462v-12.02c0-1.083.326-1.462 1.41-1.462h12.421v-5.307c-.217 0-.434-.054-.705-.054h-7.43c-1.14 0-1.465-.379-1.465-1.462v-8.121H33.607v11.64c.271 0 .542.055.76.055h22.128c1.302 0 1.627.27 1.627 1.57v18.193c0 1.245-.325 1.516-1.519 1.516H34.475c-.217.217-.489.217-.76.217zm-9.654-2.166h32V38.135h-32v16.948zm59.77 17.922v-9.313H54v9.8c.163-.108.325-.162.434-.216 1.627-.92 3.254-1.895 4.881-2.816.922-.541 1.248-.541 2.061.054 1.953 1.408 3.96 2.816 5.912 4.278.434.325.651.27 1.03-.054 2.658-2.112 5.37-4.17 8.028-6.281.922-.704 1.247-.704 2.17.054 1.084.92 2.223 1.895 3.308 2.816.65.541 1.247 1.082 2.007 1.678zm-6.346-2.599c-.109.054-.163.054-.217.108-2.82 2.22-5.695 4.386-8.516 6.606-.65.487-1.084.542-1.735.054-2.115-1.516-4.176-3.032-6.292-4.494-.162-.108-.542-.162-.759-.054a189.632 189.632 0 00-5.64 3.195c-.163.054-.326.216-.326.379v3.465h29.939v-3.032c0-.542-.108-.92-.542-1.191-.489-.325-.922-.758-1.41-1.192-1.52-1.3-3.038-2.599-4.502-3.844zM62.569 51.888H83.83V41.33H62.57v10.558zM26.23 72.138h21.262V61.58H26.23v10.56zm40.57-40.5h5.695L66.8 25.953v5.685z" fill="url(#paint1_linear)"/><path d="M62.461 31.746v2.058h-26.63v-2.058h26.63z" fill="url(#paint2_linear)"/><path d="M37.892 28.443H35.83v-2.057h2.062v2.057z" fill="url(#paint3_linear)"/><path d="M42.176 28.443h-2.06v-2.057h2.06v2.057z" fill="url(#paint4_linear)"/><path d="M44.346 26.386h2.06v2.057h-2.06v-2.057z" fill="url(#paint5_linear)"/><path d="M43.315 86v-2.004h2.061V86h-2.06z" fill="url(#paint6_linear)"/><path d="M47.22 52.755c-.433-.488-.921-.975-1.41-1.516a355.677 355.677 0 004.665-4.549c-1.681-1.624-3.2-3.086-4.827-4.71.596-.542 1.084-1.029 1.735-1.625.651.704 1.302 1.462 2.007 2.166 1.085 1.083 2.17 2.112 3.2 3.195.488.487.542 1.083.109 1.57l-5.478 5.469z" fill="url(#paint7_linear)"/><path d="M29.647 46.528c1.682 1.679 3.2 3.14 4.719 4.657l-1.627 1.462c-1.085-1.137-2.332-2.329-3.526-3.574-.542-.541-1.139-1.083-1.627-1.679-.488-.487-.488-1.082 0-1.57 1.79-1.787 3.526-3.573 5.37-5.36.488.487.922.974 1.464 1.516-1.573 1.516-3.146 2.978-4.773 4.548z" fill="url(#paint8_linear)"/><path d="M37.837 53.459c-.65-.325-1.247-.596-1.898-.92a941.79 941.79 0 006.4-12.833c.65.325 1.247.65 1.898.974a1384.54 1384.54 0 00-6.4 12.779z" fill="url(#paint9_linear)"/><path d="M71.03 69.052a3.24 3.24 0 01-3.254 3.14c-1.79 0-3.2-1.461-3.145-3.248 0-1.733 1.518-3.14 3.254-3.14 1.79 0 3.2 1.462 3.145 3.248zm-3.2.975c.597 0 1.085-.433 1.085-1.029 0-.541-.434-1.028-1.03-1.028-.597 0-1.085.433-1.085 1.028 0 .596.434 1.03 1.03 1.03z" fill="url(#paint10_linear)"/><path d="M68.915 45.5v-2.06h12.746v2.06H68.915z" fill="url(#paint11_linear)"/><path d="M81.661 49.776H68.969V47.72h12.692v2.057z" fill="url(#paint12_linear)"/><path d="M64.63 43.441h2.062V45.5H64.63v-2.058z" fill="url(#paint13_linear)"/><path d="M66.746 47.719v2.057h-2.061V47.72h2.06z" fill="url(#paint14_linear)"/><path d="M45.376 67.97v2.057h-17.03v-2.058h17.03z" fill="url(#paint15_linear)"/><path d="M35.83 63.692h9.546v2.057h-9.545v-2.057z" fill="url(#paint16_linear)"/><path d="M28.346 65.75v-2.004h5.26v2.004h-5.26z" fill="url(#paint17_linear)"/><defs><linearGradient id="paint0_linear" x1="17.5" y1="17.5" x2="90.5" y2="90.5" gradientUnits="userSpaceOnUse"><stop stop-color="#FFD53F"/><stop offset="1" stop-color="#FF9E57"/></linearGradient><linearGradient id="paint1_linear" x1="54" y1="28.4" x2="54" y2="79.6" gradientUnits="userSpaceOnUse"><stop stop-color="#387AF9"/><stop offset="1" stop-color="#1A4BF8"/></linearGradient><linearGradient id="paint2_linear" x1="54" y1="28.4" x2="54" y2="79.6" gradientUnits="userSpaceOnUse"><stop stop-color="#387AF9"/><stop offset="1" stop-color="#1A4BF8"/></linearGradient><linearGradient id="paint3_linear" x1="54" y1="28.4" x2="54" y2="79.6" gradientUnits="userSpaceOnUse"><stop stop-color="#387AF9"/><stop offset="1" stop-color="#1A4BF8"/></linearGradient><linearGradient id="paint4_linear" x1="54" y1="28.4" x2="54" y2="79.6" gradientUnits="userSpaceOnUse"><stop stop-color="#387AF9"/><stop offset="1" stop-color="#1A4BF8"/></linearGradient><linearGradient id="paint5_linear" x1="54" y1="28.4" x2="54" y2="79.6" gradientUnits="userSpaceOnUse"><stop stop-color="#387AF9"/><stop offset="1" stop-color="#1A4BF8"/></linearGradient><linearGradient id="paint6_linear" x1="54" y1="28.4" x2="54" y2="79.6" gradientUnits="userSpaceOnUse"><stop stop-color="#387AF9"/><stop offset="1" stop-color="#1A4BF8"/></linearGradient><linearGradient id="paint7_linear" x1="54" y1="28.4" x2="54" y2="79.6" gradientUnits="userSpaceOnUse"><stop stop-color="#387AF9"/><stop offset="1" stop-color="#1A4BF8"/></linearGradient><linearGradient id="paint8_linear" x1="54" y1="28.4" x2="54" y2="79.6" gradientUnits="userSpaceOnUse"><stop stop-color="#387AF9"/><stop offset="1" stop-color="#1A4BF8"/></linearGradient><linearGradient id="paint9_linear" x1="54" y1="28.4" x2="54" y2="79.6" gradientUnits="userSpaceOnUse"><stop stop-color="#387AF9"/><stop offset="1" stop-color="#1A4BF8"/></linearGradient><linearGradient id="paint10_linear" x1="54" y1="28.4" x2="54" y2="79.6" gradientUnits="userSpaceOnUse"><stop stop-color="#387AF9"/><stop offset="1" stop-color="#1A4BF8"/></linearGradient><linearGradient id="paint11_linear" x1="54" y1="28.4" x2="54" y2="79.6" gradientUnits="userSpaceOnUse"><stop stop-color="#387AF9"/><stop offset="1" stop-color="#1A4BF8"/></linearGradient><linearGradient id="paint12_linear" x1="54" y1="28.4" x2="54" y2="79.6" gradientUnits="userSpaceOnUse"><stop stop-color="#387AF9"/><stop offset="1" stop-color="#1A4BF8"/></linearGradient><linearGradient id="paint13_linear" x1="54" y1="28.4" x2="54" y2="79.6" gradientUnits="userSpaceOnUse"><stop stop-color="#387AF9"/><stop offset="1" stop-color="#1A4BF8"/></linearGradient><linearGradient id="paint14_linear" x1="54" y1="28.4" x2="54" y2="79.6" gradientUnits="userSpaceOnUse"><stop stop-color="#387AF9"/><stop offset="1" stop-color="#1A4BF8"/></linearGradient><linearGradient id="paint15_linear" x1="54" y1="28.4" x2="54" y2="79.6" gradientUnits="userSpaceOnUse"><stop stop-color="#387AF9"/><stop offset="1" stop-color="#1A4BF8"/></linearGradient><linearGradient id="paint16_linear" x1="54" y1="28.4" x2="54" y2="79.6" gradientUnits="userSpaceOnUse"><stop stop-color="#387AF9"/><stop offset="1" stop-color="#1A4BF8"/></linearGradient><linearGradient id="paint17_linear" x1="54" y1="28.4" x2="54" y2="79.6" gradientUnits="userSpaceOnUse"><stop stop-color="#387AF9"/><stop offset="1" stop-color="#1A4BF8"/></linearGradient></defs></svg>