<svg width="108" height="108" fill="none" xmlns="http://www.w3.org/2000/svg"><path fill-rule="evenodd" clip-rule="evenodd" d="M13.492 19.634a53.797 53.797 0 012.948-3.195 1.5 1.5 0 012.121 2.122 50.797 50.797 0 00-2.783 3.017 1.5 1.5 0 01-2.286-1.944zm5.972-4.028a1.5 1.5 0 01.17-2.114C28.822 5.682 40.039 1.499 51.395.945a1.5 1.5 0 11.147 2.996c-10.72.524-21.298 4.47-29.963 11.837a1.5 1.5 0 01-2.114-.172zm-6.554 7.106a1.5 1.5 0 01.343 2.094c-.16.222-.318.446-.474.67a1.5 1.5 0 11-2.465-1.71c.165-.238.333-.475.502-.71a1.5 1.5 0 012.093-.344zM2.37 55.035a1.5 1.5 0 011.572 1.425c.523 10.719 4.469 21.297 11.836 29.962a1.5 1.5 0 01-2.286 1.944C5.682 79.179 1.5 67.963.945 56.606a1.5 1.5 0 011.425-1.571zM82.147 10.69a1.5 1.5 0 012.087-.377c.238.165.475.332.711.502a1.5 1.5 0 11-1.75 2.436 48.1 48.1 0 00-.67-.473 1.5 1.5 0 01-.378-2.088zm4.105 2.972a1.5 1.5 0 012.114-.171 53.796 53.796 0 013.195 2.947 1.5 1.5 0 11-2.121 2.122 50.824 50.824 0 00-3.017-2.784 1.5 1.5 0 01-.171-2.114zM16.44 89.439a1.5 1.5 0 012.121 0 50.795 50.795 0 003.017 2.784 1.5 1.5 0 01-1.943 2.285 53.83 53.83 0 01-3.195-2.947 1.5 1.5 0 010-2.122zm75.954-69.976a1.5 1.5 0 012.114.171c7.811 9.187 11.993 20.403 12.548 31.76a1.5 1.5 0 01-2.997.146c-.523-10.719-4.469-21.297-11.836-29.962a1.5 1.5 0 01.171-2.115zM22.713 95.091a1.5 1.5 0 012.093-.343c.223.16.446.317.67.473a1.5 1.5 0 11-1.71 2.465 52.52 52.52 0 01-.71-.502 1.5 1.5 0 01-.343-2.093zm32.322 10.539a1.5 1.5 0 011.426-1.571c10.718-.524 21.297-4.47 29.962-11.837a1.5 1.5 0 111.943 2.286c-9.186 7.811-20.403 11.993-31.76 12.547a1.5 1.5 0 01-1.57-1.425zM97.31 82.146a1.5 1.5 0 01.378 2.088c-.165.238-.333.475-.502.71a1.5 1.5 0 01-2.437-1.75c.16-.222.318-.446.474-.67a1.5 1.5 0 012.087-.378zm-2.972 4.105a1.5 1.5 0 01.171 2.115 53.828 53.828 0 01-2.947 3.195 1.5 1.5 0 01-2.121-2.122 50.825 50.825 0 002.783-3.016 1.5 1.5 0 012.114-.172z" fill="url(#paint0_linear)" fill-opacity=".72"/><path d="M29.467 32.667a3.2 3.2 0 100-6.4 3.2 3.2 0 000 6.4zm0-4.267a1.067 1.067 0 110 2.133 1.067 1.067 0 010-2.133z" fill="url(#paint1_linear)"/><path d="M38 32.667a3.2 3.2 0 100-6.4 3.2 3.2 0 000 6.4zm0-4.267a1.067 1.067 0 110 2.133 1.067 1.067 0 010-2.133z" fill="url(#paint2_linear)"/><path d="M57.2 32.667h10.667a3.2 3.2 0 000-6.4H57.2a3.2 3.2 0 000 6.4zm0-4.267h10.667a1.067 1.067 0 110 2.133H57.2a1.067 1.067 0 010-2.133z" fill="url(#paint3_linear)"/><path d="M72.133 48.667a3.2 3.2 0 100 6.4 3.2 3.2 0 000-6.4zm0 4.266a1.067 1.067 0 110-2.133 1.067 1.067 0 010 2.133z" fill="url(#paint4_linear)"/><path d="M72.133 57.2a3.2 3.2 0 100 6.4 3.2 3.2 0 000-6.4zm0 4.267a1.067 1.067 0 110-2.134 1.067 1.067 0 010 2.134z" fill="url(#paint5_linear)"/><path d="M72.133 65.733a3.2 3.2 0 100 6.4 3.2 3.2 0 000-6.4zm0 4.267a1.067 1.067 0 110-2.133 1.067 1.067 0 010 2.133z" fill="url(#paint6_linear)"/><path d="M81.733 55.067A4.267 4.267 0 0086 50.8a2.133 2.133 0 00-2.133-2.133h-3.2V47.6a3.2 3.2 0 00-3.2-3.2h-2.134V26.267A4.267 4.267 0 0071.067 22h-44.8A4.267 4.267 0 0022 26.267v51.2a4.267 4.267 0 004.267 4.266h41.6v2.134c0 1.178.955 2.133 2.133 2.133h4.267a2.133 2.133 0 002.133-2.133V76.4h1.067a3.2 3.2 0 003.2-3.2v-1.067h1.066A4.267 4.267 0 0086 67.867a2.133 2.133 0 00-2.133-2.134h-3.2V63.6h1.066A4.267 4.267 0 0086 59.333a2.133 2.133 0 00-2.133-2.133h-3.2v-2.133h1.066zm2.134-4.267a2.133 2.133 0 01-2.134 2.133h-1.066V50.8h3.2zm-57.6-26.667h44.8c1.178 0 2.133.956 2.133 2.134V34.8H24.133v-8.533c0-1.178.956-2.134 2.134-2.134zm0 55.467a2.133 2.133 0 01-2.134-2.133V36.933H73.2V44.4h-6.4a3.2 3.2 0 00-3.2 3.2v1.067h-3.2a2.133 2.133 0 00-2.133 2.133 4.267 4.267 0 004.266 4.267H63.6V57.2h-3.2a2.133 2.133 0 00-2.133 2.133 4.267 4.267 0 004.266 4.267H63.6v2.133h-3.2a2.133 2.133 0 00-2.133 2.134 4.267 4.267 0 004.266 4.266H63.6V73.2a3.2 3.2 0 003.2 3.2h1.067v3.2h-41.6zM63.6 70h-1.067a2.133 2.133 0 01-2.133-2.133h3.2V70zm0-8.533h-1.067a2.133 2.133 0 01-2.133-2.134h3.2v2.134zm0-8.534h-1.067A2.133 2.133 0 0160.4 50.8h3.2v2.133zm10.667 30.934H70V76.4h4.267v7.467zM78.533 73.2c0 .59-.477 1.067-1.066 1.067H66.8c-.59 0-1.067-.478-1.067-1.067V47.6c0-.59.478-1.067 1.067-1.067h10.667c.589 0 1.066.478 1.066 1.067v25.6zm5.334-5.333A2.133 2.133 0 0181.733 70h-1.066v-2.133h3.2zm0-8.534a2.133 2.133 0 01-2.134 2.134h-1.066v-2.134h3.2z" fill="url(#paint7_linear)"/><path d="M27.333 56.133h25.6a1.067 1.067 0 000-2.133h-1.066V43.333a3.2 3.2 0 00-6.4 0v2.33a3.069 3.069 0 00-2.257.038 3.147 3.147 0 00-4.143-2.171v-1.263a3.2 3.2 0 00-6.4 0v.196a3.166 3.166 0 00-1.067-.196 3.2 3.2 0 00-3.2 3.2V54h-1.067a1.067 1.067 0 100 2.133zm20.267-12.8a1.067 1.067 0 112.133 0V54H47.6V43.333zM44.4 47.6c.59 0 1.067.478 1.067 1.067V54h-2.134v-5.333c0-.59.478-1.067 1.067-1.067zm-4.267-2.133c.59 0 1.067.477 1.067 1.066V54h-2.133v-7.467c0-.589.477-1.066 1.066-1.066zm-5.333-3.2a1.067 1.067 0 112.133 0V54H34.8V42.267zm-4.267 3.2a1.067 1.067 0 112.134 0V54h-2.134v-8.533z" fill="url(#paint8_linear)"/><path d="M46.533 60.4a1.067 1.067 0 000-2.133h-19.2a1.067 1.067 0 100 2.133h19.2z" fill="url(#paint9_linear)"/><path d="M52.933 58.267H50.8a1.067 1.067 0 100 2.133h2.133a1.067 1.067 0 000-2.133z" fill="url(#paint10_linear)"/><path d="M55.067 64.667H43.333a1.067 1.067 0 100 2.133h11.734a1.067 1.067 0 000-2.133z" fill="url(#paint11_linear)"/><path d="M43.333 71.066h2.134a1.067 1.067 0 100-2.133h-2.134a1.067 1.067 0 000 2.133z" fill="url(#paint12_linear)"/><path d="M55.067 68.933h-5.334a1.067 1.067 0 000 2.133h5.334a1.067 1.067 0 100-2.133z" fill="url(#paint13_linear)"/><path d="M48.667 73.2h-5.334a1.067 1.067 0 000 2.133h5.334a1.067 1.067 0 100-2.133z" fill="url(#paint14_linear)"/><path d="M33.733 63.6a6.4 6.4 0 106.4 6.4 6.406 6.406 0 00-6.4-6.4zm4.116 5.333H34.8v-3.048a4.266 4.266 0 013.049 3.048zm-5.182-3.048v3.346l-3.171 1.054c-.007-.096-.03-.187-.03-.285a4.267 4.267 0 013.2-4.115zm1.066 8.382a4.267 4.267 0 01-3.575-1.953l3.75-1.247h3.946a4.267 4.267 0 01-4.12 3.2z" fill="url(#paint15_linear)"/><defs><linearGradient id="paint0_linear" x1="17.5" y1="17.5" x2="90.5" y2="90.5" gradientUnits="userSpaceOnUse"><stop stop-color="#FFD53F"/><stop offset="1" stop-color="#FF9E57"/></linearGradient><linearGradient id="paint1_linear" x1="54" y1="28.4" x2="54" y2="79.6" gradientUnits="userSpaceOnUse"><stop stop-color="#387AF9"/><stop offset="1" stop-color="#1A4BF8"/></linearGradient><linearGradient id="paint2_linear" x1="54" y1="28.4" x2="54" y2="79.6" gradientUnits="userSpaceOnUse"><stop stop-color="#387AF9"/><stop offset="1" stop-color="#1A4BF8"/></linearGradient><linearGradient id="paint3_linear" x1="54" y1="28.4" x2="54" y2="79.6" gradientUnits="userSpaceOnUse"><stop stop-color="#387AF9"/><stop offset="1" stop-color="#1A4BF8"/></linearGradient><linearGradient id="paint4_linear" x1="54" y1="28.4" x2="54" y2="79.6" gradientUnits="userSpaceOnUse"><stop stop-color="#387AF9"/><stop offset="1" stop-color="#1A4BF8"/></linearGradient><linearGradient id="paint5_linear" x1="54" y1="28.4" x2="54" y2="79.6" gradientUnits="userSpaceOnUse"><stop stop-color="#387AF9"/><stop offset="1" stop-color="#1A4BF8"/></linearGradient><linearGradient id="paint6_linear" x1="54" y1="28.4" x2="54" y2="79.6" gradientUnits="userSpaceOnUse"><stop stop-color="#387AF9"/><stop offset="1" stop-color="#1A4BF8"/></linearGradient><linearGradient id="paint7_linear" x1="54" y1="28.4" x2="54" y2="79.6" gradientUnits="userSpaceOnUse"><stop stop-color="#387AF9"/><stop offset="1" stop-color="#1A4BF8"/></linearGradient><linearGradient id="paint8_linear" x1="54" y1="28.4" x2="54" y2="79.6" gradientUnits="userSpaceOnUse"><stop stop-color="#387AF9"/><stop offset="1" stop-color="#1A4BF8"/></linearGradient><linearGradient id="paint9_linear" x1="54" y1="28.4" x2="54" y2="79.6" gradientUnits="userSpaceOnUse"><stop stop-color="#387AF9"/><stop offset="1" stop-color="#1A4BF8"/></linearGradient><linearGradient id="paint10_linear" x1="54" y1="28.4" x2="54" y2="79.6" gradientUnits="userSpaceOnUse"><stop stop-color="#387AF9"/><stop offset="1" stop-color="#1A4BF8"/></linearGradient><linearGradient id="paint11_linear" x1="54" y1="28.4" x2="54" y2="79.6" gradientUnits="userSpaceOnUse"><stop stop-color="#387AF9"/><stop offset="1" stop-color="#1A4BF8"/></linearGradient><linearGradient id="paint12_linear" x1="54" y1="28.4" x2="54" y2="79.6" gradientUnits="userSpaceOnUse"><stop stop-color="#387AF9"/><stop offset="1" stop-color="#1A4BF8"/></linearGradient><linearGradient id="paint13_linear" x1="54" y1="28.4" x2="54" y2="79.6" gradientUnits="userSpaceOnUse"><stop stop-color="#387AF9"/><stop offset="1" stop-color="#1A4BF8"/></linearGradient><linearGradient id="paint14_linear" x1="54" y1="28.4" x2="54" y2="79.6" gradientUnits="userSpaceOnUse"><stop stop-color="#387AF9"/><stop offset="1" stop-color="#1A4BF8"/></linearGradient><linearGradient id="paint15_linear" x1="54" y1="28.4" x2="54" y2="79.6" gradientUnits="userSpaceOnUse"><stop stop-color="#387AF9"/><stop offset="1" stop-color="#1A4BF8"/></linearGradient></defs></svg>