<svg width="108" height="108" fill="none" xmlns="http://www.w3.org/2000/svg"><path fill-rule="evenodd" clip-rule="evenodd" d="M13.492 19.634a53.765 53.765 0 012.947-3.195 1.5 1.5 0 112.122 2.122 50.795 50.795 0 00-2.784 3.017 1.5 1.5 0 01-2.285-1.944zm5.971-4.028a1.5 1.5 0 01.171-2.114C28.821 5.682 40.037 1.499 51.394.945a1.5 1.5 0 01.146 2.996c-10.719.524-21.297 4.47-29.962 11.837a1.5 1.5 0 01-2.115-.172zm-6.554 7.106a1.5 1.5 0 01.343 2.094c-.16.222-.318.446-.473.67a1.5 1.5 0 11-2.465-1.71c.165-.238.332-.475.502-.71a1.5 1.5 0 012.093-.344zM2.369 55.035a1.5 1.5 0 011.572 1.425c.524 10.719 4.47 21.297 11.837 29.962a1.5 1.5 0 01-2.286 1.944C5.682 79.179 1.499 67.963.945 56.606a1.5 1.5 0 011.425-1.571zM82.147 10.69a1.5 1.5 0 012.088-.377c.238.165.475.332.71.502a1.5 1.5 0 01-1.75 2.436c-.222-.16-.446-.318-.67-.473a1.5 1.5 0 01-.378-2.088zm4.105 2.972a1.5 1.5 0 012.115-.171 53.796 53.796 0 013.195 2.947 1.5 1.5 0 11-2.122 2.122 50.857 50.857 0 00-3.016-2.784 1.5 1.5 0 01-.172-2.114zM16.44 89.439a1.5 1.5 0 012.122 0 50.795 50.795 0 003.017 2.784 1.5 1.5 0 01-1.944 2.285 53.829 53.829 0 01-3.195-2.947 1.5 1.5 0 010-2.122zm75.955-69.976a1.5 1.5 0 012.114.171c7.811 9.187 11.993 20.403 12.547 31.76a1.5 1.5 0 11-2.996.146c-.524-10.719-4.47-21.297-11.837-29.962a1.5 1.5 0 01.172-2.115zM22.712 95.091a1.5 1.5 0 012.094-.343c.222.16.446.317.67.473a1.5 1.5 0 11-1.71 2.465 52.52 52.52 0 01-.71-.502 1.5 1.5 0 01-.344-2.093zm32.323 10.539a1.5 1.5 0 011.425-1.571c10.719-.524 21.297-4.47 29.962-11.837a1.5 1.5 0 111.944 2.286c-9.187 7.811-20.403 11.993-31.76 12.547a1.5 1.5 0 01-1.571-1.425zm42.274-23.484a1.5 1.5 0 01.377 2.088c-.165.238-.332.475-.502.71a1.5 1.5 0 01-2.436-1.75c.16-.222.317-.446.473-.67a1.5 1.5 0 012.088-.378zm-2.972 4.105a1.5 1.5 0 01.171 2.115 53.83 53.83 0 01-2.947 3.195 1.5 1.5 0 11-2.122-2.122 50.857 50.857 0 002.784-3.016 1.5 1.5 0 012.114-.172z" fill="url(#paint0_linear)" fill-opacity=".72"/><path d="M42.645 50.903h2.065v2.065h-2.065v-2.065z" fill="url(#paint1_linear)"/><path d="M38.516 50.903h2.065v2.065h-2.065v-2.065z" fill="url(#paint2_linear)"/><path d="M46.774 50.903h2.065v2.065h-2.065v-2.065z" fill="url(#paint3_linear)"/><path d="M48.839 59.161h2.064v2.065H48.84V59.16z" fill="url(#paint4_linear)"/><path d="M52.968 59.161h2.064v2.065h-2.064V59.16z" fill="url(#paint5_linear)"/><path d="M44.71 59.161h2.064v2.065H44.71V59.16z" fill="url(#paint6_linear)"/><path d="M46.774 67.42h2.065v2.064h-2.065v-2.065z" fill="url(#paint7_linear)"/><path d="M42.645 67.42h2.065v2.064h-2.065v-2.065z" fill="url(#paint8_linear)"/><path d="M38.516 67.42h2.065v2.064h-2.065v-2.065z" fill="url(#paint9_linear)"/><path d="M50.903 75.677H40.581a2.067 2.067 0 00-2.065 2.065v2.064c0 1.14.926 2.065 2.065 2.065h10.322a2.067 2.067 0 002.065-2.064v-2.065a2.067 2.067 0 00-2.065-2.065zm-4.129 2.065v2.064H44.71v-2.064h2.064zm-6.193 0h2.064v2.064h-2.064v-2.064zm8.258 2.064v-2.064h2.064l.001 2.064H48.84z" fill="url(#paint10_linear)"/><path d="M67.131 54l.556-1.666a9.77 9.77 0 00.377-.158l1.573.787 2.058-2.06h6.047c4.553 0 8.258-3.705 8.258-8.258 0-4.553-3.705-8.258-8.258-8.258-.566 0-1.13.06-1.689.179a12.34 12.34 0 00-11.73-8.437c-2.778 0-5.372.91-7.47 2.495A14.416 14.416 0 0044.71 22a14.378 14.378 0 00-13.842 10.332c-4.928.222-8.868 4.3-8.868 9.28 0 4.774 3.62 8.714 8.258 9.23V80.84A5.167 5.167 0 0035.42 86h22.71a5.167 5.167 0 005.161-5.161V54h3.841zm3.965-5.417L69.23 50.45l-1.16-.579-.465.237a7.01 7.01 0 01-1.056.441l-.496.161-.41 1.225H63.29v-3.212c.339.07.684.116 1.033.116a5.167 5.167 0 005.16-5.162 5.167 5.167 0 00-5.16-5.16c-2.538 0-4.641 1.844-5.07 4.26a5.154 5.154 0 00-1.124-.132h-2.064v-.288l1.225-.408.16-.496c.113-.35.262-.705.442-1.056l.237-.465-.58-1.159 1.867-1.867 1.16.578.465-.238a7.15 7.15 0 011.056-.44l.496-.161.41-1.226h2.64l.409 1.226.496.16c.35.113.705.262 1.056.441l.465.238 1.159-.58 1.867 1.867-.579 1.16.237.465c.18.35.329.707.441 1.056l.161.496 1.226.41v2.64l-1.226.408-.16.497c-.113.35-.262.705-.441 1.056l-.238.464.58 1.16zm-9.87-4.906a3.1 3.1 0 013.097-3.096 3.1 3.1 0 013.096 3.096 3.1 3.1 0 01-3.096 3.097c-.427 0-.837-.112-1.223-.28a5.149 5.149 0 00-1.872-2.789l-.002-.028zm-30.968 4.13v.95c-3.496-.505-6.194-3.512-6.194-7.144 0-3.985 3.242-7.226 7.226-7.226.056 0 .11.004.164.008l1.014.048.196-.833a12.328 12.328 0 0112.046-9.546c4.354 0 8.341 2.264 10.584 5.953a12.46 12.46 0 00-2.513 3.994l1.923.752a10.263 10.263 0 019.619-6.57c4.774 0 8.894 3.243 10.02 7.885l.268 1.109 1.077-.38a6.197 6.197 0 012.054-.355 6.2 6.2 0 016.194 6.193 6.2 6.2 0 01-6.194 6.194h-4.21l-.71-1.42a9.77 9.77 0 00.158-.378l1.665-.555V40.87l-1.666-.556a9.774 9.774 0 00-.158-.377l.787-1.573-3.972-3.972-1.572.787a9.837 9.837 0 00-.378-.158l-.555-1.666h-5.616l-.556 1.666c-.126.05-.251.102-.377.158l-1.572-.787-3.973 3.972.787 1.573a9.616 9.616 0 00-.158.377L54 40.87v1.776H35.42a5.167 5.167 0 00-5.162 5.161zm26.839 7.225H36.452V48.84h20.645v6.193zm-20.645 2.065h20.645v6.193H36.452v-6.193zm0 8.258h20.645v6.193H36.452v-6.193zm0 8.258h20.645v10.323H36.452V73.613zm24.774 7.226c0 1.344-.866 2.48-2.065 2.907V48.839a2.067 2.067 0 00-2.064-2.065H36.452a2.067 2.067 0 00-2.065 2.065v34.907a3.092 3.092 0 01-2.064-2.907V47.806a3.1 3.1 0 013.096-3.096h22.71a3.1 3.1 0 013.097 3.096V80.84z" fill="url(#paint11_linear)"/><path d="M74.645 79.806c-1.344 0-2.48.867-2.907 2.065h-2.254V76.71h-4.13v2.064h2.065v5.162h4.32A3.093 3.093 0 0074.644 86a3.1 3.1 0 003.097-3.097 3.1 3.1 0 00-3.097-3.097zm0 4.13a1.034 1.034 0 01-1.032-1.033 1.033 1.033 0 012.064 0c0 .569-.463 1.032-1.032 1.032z" fill="url(#paint12_linear)"/><path d="M78.774 73.613c-1.344 0-2.48.866-2.907 2.064h-2.254v-3.096h-8.258v2.064h6.193v3.097h4.32a3.093 3.093 0 002.906 2.064 3.1 3.1 0 003.097-3.096 3.1 3.1 0 00-3.097-3.097zm0 4.129a1.034 1.034 0 01-1.032-1.032c0-.57.463-1.033 1.032-1.033s1.032.464 1.032 1.033c0 .568-.463 1.032-1.032 1.032z" fill="url(#paint13_linear)"/><path d="M81.871 62.258a3.1 3.1 0 00-3.097-3.097c-1.344 0-2.48.866-2.907 2.065h-4.319v3.097h-6.193v2.064h8.258V63.29h2.254a3.093 3.093 0 002.907 2.065 3.1 3.1 0 003.097-3.097zm-4.13 0a1.034 1.034 0 012.064 0 1.032 1.032 0 01-1.03 1.032 1.034 1.034 0 01-1.033-1.032z" fill="url(#paint14_linear)"/><path d="M82.903 66.387a3.1 3.1 0 00-3.097 3.097 3.1 3.1 0 003.097 3.097A3.1 3.1 0 0086 69.484a3.1 3.1 0 00-3.097-3.097zm0 4.13a1.034 1.034 0 01-1.032-1.033 1.033 1.033 0 012.064 0c0 .569-.463 1.032-1.032 1.032z" fill="url(#paint15_linear)"/><path d="M65.355 68.452h12.387v2.064H65.355v-2.064z" fill="url(#paint16_linear)"/><path d="M71.738 57.097a3.093 3.093 0 002.907 2.064 3.1 3.1 0 003.097-3.096 3.1 3.1 0 00-3.097-3.097c-1.344 0-2.48.866-2.907 2.064H67.42v5.162h-2.064v2.064h4.129v-5.161h2.254zm2.907-2.065c.569 0 1.032.464 1.032 1.033 0 .568-.463 1.032-1.032 1.032a1.034 1.034 0 01-1.032-1.032c0-.57.463-1.033 1.032-1.033z" fill="url(#paint17_linear)"/><path d="M44.71 28.194c.62 0 1.237.069 1.836.204l.456-2.013a10.325 10.325 0 00-2.292-.256c-4.855 0-8.994 3.302-10.067 8.03l2.013.456a8.21 8.21 0 018.054-6.421z" fill="url(#paint18_linear)"/><defs><linearGradient id="paint0_linear" x1="17.5" y1="17.5" x2="90.5" y2="90.5" gradientUnits="userSpaceOnUse"><stop stop-color="#FFD53F"/><stop offset="1" stop-color="#FF9E57"/></linearGradient><linearGradient id="paint1_linear" x1="54" y1="28.4" x2="54" y2="79.6" gradientUnits="userSpaceOnUse"><stop stop-color="#387AF9"/><stop offset="1" stop-color="#1A4BF8"/></linearGradient><linearGradient id="paint2_linear" x1="54" y1="28.4" x2="54" y2="79.6" gradientUnits="userSpaceOnUse"><stop stop-color="#387AF9"/><stop offset="1" stop-color="#1A4BF8"/></linearGradient><linearGradient id="paint3_linear" x1="54" y1="28.4" x2="54" y2="79.6" gradientUnits="userSpaceOnUse"><stop stop-color="#387AF9"/><stop offset="1" stop-color="#1A4BF8"/></linearGradient><linearGradient id="paint4_linear" x1="54" y1="28.4" x2="54" y2="79.6" gradientUnits="userSpaceOnUse"><stop stop-color="#387AF9"/><stop offset="1" stop-color="#1A4BF8"/></linearGradient><linearGradient id="paint5_linear" x1="54" y1="28.4" x2="54" y2="79.6" gradientUnits="userSpaceOnUse"><stop stop-color="#387AF9"/><stop offset="1" stop-color="#1A4BF8"/></linearGradient><linearGradient id="paint6_linear" x1="54" y1="28.4" x2="54" y2="79.6" gradientUnits="userSpaceOnUse"><stop stop-color="#387AF9"/><stop offset="1" stop-color="#1A4BF8"/></linearGradient><linearGradient id="paint7_linear" x1="54" y1="28.4" x2="54" y2="79.6" gradientUnits="userSpaceOnUse"><stop stop-color="#387AF9"/><stop offset="1" stop-color="#1A4BF8"/></linearGradient><linearGradient id="paint8_linear" x1="54" y1="28.4" x2="54" y2="79.6" gradientUnits="userSpaceOnUse"><stop stop-color="#387AF9"/><stop offset="1" stop-color="#1A4BF8"/></linearGradient><linearGradient id="paint9_linear" x1="54" y1="28.4" x2="54" y2="79.6" gradientUnits="userSpaceOnUse"><stop stop-color="#387AF9"/><stop offset="1" stop-color="#1A4BF8"/></linearGradient><linearGradient id="paint10_linear" x1="54" y1="28.4" x2="54" y2="79.6" gradientUnits="userSpaceOnUse"><stop stop-color="#387AF9"/><stop offset="1" stop-color="#1A4BF8"/></linearGradient><linearGradient id="paint11_linear" x1="54" y1="28.4" x2="54" y2="79.6" gradientUnits="userSpaceOnUse"><stop stop-color="#387AF9"/><stop offset="1" stop-color="#1A4BF8"/></linearGradient><linearGradient id="paint12_linear" x1="54" y1="28.4" x2="54" y2="79.6" gradientUnits="userSpaceOnUse"><stop stop-color="#387AF9"/><stop offset="1" stop-color="#1A4BF8"/></linearGradient><linearGradient id="paint13_linear" x1="54" y1="28.4" x2="54" y2="79.6" gradientUnits="userSpaceOnUse"><stop stop-color="#387AF9"/><stop offset="1" stop-color="#1A4BF8"/></linearGradient><linearGradient id="paint14_linear" x1="54" y1="28.4" x2="54" y2="79.6" gradientUnits="userSpaceOnUse"><stop stop-color="#387AF9"/><stop offset="1" stop-color="#1A4BF8"/></linearGradient><linearGradient id="paint15_linear" x1="54" y1="28.4" x2="54" y2="79.6" gradientUnits="userSpaceOnUse"><stop stop-color="#387AF9"/><stop offset="1" stop-color="#1A4BF8"/></linearGradient><linearGradient id="paint16_linear" x1="54" y1="28.4" x2="54" y2="79.6" gradientUnits="userSpaceOnUse"><stop stop-color="#387AF9"/><stop offset="1" stop-color="#1A4BF8"/></linearGradient><linearGradient id="paint17_linear" x1="54" y1="28.4" x2="54" y2="79.6" gradientUnits="userSpaceOnUse"><stop stop-color="#387AF9"/><stop offset="1" stop-color="#1A4BF8"/></linearGradient><linearGradient id="paint18_linear" x1="54" y1="28.4" x2="54" y2="79.6" gradientUnits="userSpaceOnUse"><stop stop-color="#387AF9"/><stop offset="1" stop-color="#1A4BF8"/></linearGradient></defs></svg>