<svg width="108" height="108" fill="none" xmlns="http://www.w3.org/2000/svg"><path fill-rule="evenodd" clip-rule="evenodd" d="M13.492 19.634a53.797 53.797 0 012.948-3.195 1.5 1.5 0 012.121 2.122 50.797 50.797 0 00-2.783 3.017 1.5 1.5 0 01-2.286-1.944zm5.972-4.028a1.5 1.5 0 01.17-2.114C28.822 5.682 40.039 1.499 51.395.945a1.5 1.5 0 11.147 2.996c-10.72.524-21.298 4.47-29.963 11.837a1.5 1.5 0 01-2.114-.172zm-6.554 7.106a1.5 1.5 0 01.343 2.094c-.16.222-.318.446-.474.67a1.5 1.5 0 11-2.465-1.71c.165-.238.333-.475.502-.71a1.5 1.5 0 012.093-.344zM2.37 55.035a1.5 1.5 0 011.572 1.425c.523 10.719 4.469 21.297 11.836 29.962a1.5 1.5 0 01-2.286 1.944C5.682 79.179 1.5 67.963.945 56.606a1.5 1.5 0 011.425-1.571zM82.147 10.69a1.5 1.5 0 012.087-.377c.238.165.475.332.711.502a1.5 1.5 0 11-1.75 2.436 48.1 48.1 0 00-.67-.473 1.5 1.5 0 01-.378-2.088zm4.105 2.972a1.5 1.5 0 012.114-.171 53.796 53.796 0 013.195 2.947 1.5 1.5 0 11-2.121 2.122 50.824 50.824 0 00-3.017-2.784 1.5 1.5 0 01-.171-2.114zM16.44 89.439a1.5 1.5 0 012.121 0 50.795 50.795 0 003.017 2.784 1.5 1.5 0 01-1.943 2.285 53.83 53.83 0 01-3.195-2.947 1.5 1.5 0 010-2.122zm75.954-69.976a1.5 1.5 0 012.114.171c7.811 9.187 11.993 20.403 12.548 31.76a1.5 1.5 0 01-2.997.146c-.523-10.719-4.469-21.297-11.836-29.962a1.5 1.5 0 01.171-2.115zM22.713 95.091a1.5 1.5 0 012.093-.343c.223.16.446.317.67.473a1.5 1.5 0 11-1.71 2.465 52.52 52.52 0 01-.71-.502 1.5 1.5 0 01-.343-2.093zm32.322 10.539a1.5 1.5 0 011.426-1.571c10.718-.524 21.297-4.47 29.962-11.837a1.5 1.5 0 111.943 2.286c-9.186 7.811-20.403 11.993-31.76 12.547a1.5 1.5 0 01-1.57-1.425zM97.31 82.146a1.5 1.5 0 01.378 2.088c-.165.238-.333.475-.502.71a1.5 1.5 0 01-2.437-1.75c.16-.222.318-.446.474-.67a1.5 1.5 0 012.087-.378zm-2.972 4.105a1.5 1.5 0 01.171 2.115 53.828 53.828 0 01-2.947 3.195 1.5 1.5 0 01-2.121-2.122 50.825 50.825 0 002.783-3.016 1.5 1.5 0 012.114-.172z" fill="url(#paint0_linear)" fill-opacity=".72"/><path d="M69.6 85.787c-.425-.053-.904-.106-1.33-.16-.267-.053-.48-.159-.693-.212l-.639-.16a6.712 6.712 0 01-.532-.16c-.16-.053-.373-.159-.532-.212-.267-.107-.533-.213-.746-.32-.32-.159-.586-.265-.905-.425a3.395 3.395 0 01-.745-.426l-.959-.638c-.32-.266-.639-.479-.958-.745-.586-.532-1.172-1.064-1.65-1.596-.48-.585-.906-1.223-1.332-1.809-.32-.425-.532-.85-.745-1.33-.16-.319-.32-.585-.48-.904-.16-.426-.266-.798-.425-1.224-.107-.372-.267-.744-.32-1.117l-.16-.798c-.053-.532-.16-1.117-.213-1.649-.053-.638-.106-1.224.053-1.862v-.106c-.053 0-.16-.054-.212-.054h-4.1c-.053.16-.107.373-.16.532-.053.48-.373.798-.692 1.064-.426.373-.905.48-1.438.48H39.198c-.745 0-1.331-.32-1.757-.905-.213-.266-.373-.585-.32-.905v-.266c-.106 0-.213-.053-.319-.053h-6.975c-.426 0-.799-.106-1.065-.532-.16-.266-.266-.479-.106-.851.106-.213.213-.426.425-.532.16-.106.32-.213.533-.213.426-.053.905 0 1.331 0h5.91c.107 0 .213 0 .32-.053 0-.106 0-.213.053-.32 0-.478.266-.85.586-1.17.266-.319.692-.479 1.065-.585.106-.053.213 0 .266 0h4.473V62.38c-.107 0-.214-.053-.373-.053H26.313c-.426 0-.799-.107-1.172-.213-.372-.106-.745-.32-1.064-.532a4.155 4.155 0 01-1.278-1.436c-.213-.373-.32-.852-.426-1.277-.373-.532-.32-1.17-.32-1.809v-4.894c0-.48.053-.905.16-1.383.107-.426.266-.852.532-1.224.267-.32.48-.585.746-.958-.16-.16-.32-.372-.48-.532a4.046 4.046 0 01-.638-1.01A6.268 6.268 0 0122 44.875v-5.373c0-.532.053-1.01.16-1.49.213-.797.639-1.49 1.224-2.074v-.16c-.32-.372-.639-.798-.852-1.277-.16-.372-.266-.745-.372-1.117-.16-.638-.107-1.33-.107-1.968v-4.629c0-.532 0-1.064.16-1.596.107-.425.32-.798.532-1.223.267-.48.693-.852 1.119-1.17.212-.16.532-.32.798-.426.32-.107.692-.213 1.065-.32h36.526c.426 0 .905.054 1.331.16.373.106.692.213 1.012.426.266.212.585.425.852.638.213.213.426.479.585.745.16.266.32.585.426.904.213.32.266.639.266.905v7.023a3.6 3.6 0 01-.745 2.18 9.244 9.244 0 01-.639.745c-.106.213.16.266.266.426.32.319.533.691.746 1.117.266.532.373 1.064.373 1.65v6.915c0 .479-.16.851-.32 1.277a3.6 3.6 0 01-.958 1.383c-.054.053-.054.107-.054.16.426.425.799.904 1.065 1.436.266.585.373 1.224.373 1.862v4.79c.16-.054.266-.054.373-.054.053 0 .053-.053.106-.053l.799-.16c.32-.053.692-.16 1.011-.213.16-.053.32 0 .533 0h.426v-2.18a2.869 2.869 0 01-.692-.373c-.267-.213-.32-.532-.267-.852 0-.372.16-.638.426-.797.16-.107.373-.16.533-.16h2.183c.586 0 1.065.479 1.011 1.117 0 .372-.16.639-.479.851-.16.107-.372.16-.532.213v2.128c.053 0 .053.053.106.053.426.053.852.053 1.332.16.319.053.692.16 1.011.213.16.053.373.106.533.16.32.106.638.159.958.265.48.16.905.373 1.331.585.533.267 1.012.532 1.544.798.32.213.64.426.959.692.32.213.585.426.905.692.053 0 .106-.053.16-.107.266-.266.638-.372.958-.266.266.053.532.213.639.532.053.107.106.213.106.32.054.425-.106.744-.426 1.064.107.16.213.266.32.425.266.32.532.639.745.958.266.425.533.85.746 1.277l.639 1.276.479 1.117c.053.16.106.373.16.586.053.16.106.372.16.532.106.532.212 1.01.319 1.543.053.212.053.478.053.691v2.82c-.053.479-.106.904-.16 1.383l-.32 1.277c-.106.425-.265.851-.425 1.277-.16.425-.373.798-.586 1.223-.213.479-.48.905-.745 1.33-.373.532-.746 1.117-1.172 1.65a11.84 11.84 0 01-1.384 1.436 17.53 17.53 0 01-1.544 1.223c-.32.266-.692.48-1.065.692-.266.16-.532.266-.799.426-.32.16-.639.319-.905.425-.266.107-.532.16-.798.266-.32.107-.64.266-.959.32-.373.106-.692.212-1.065.265-.426.054-.905.107-1.33.16-1.288 0-3.036-.213-3.142-.213zm-7.507-23.834c-.213.213-.426.373-.586.586a14.73 14.73 0 00-.851 1.064c-.16.16-.267.372-.373.532-.213.372-.426.691-.586 1.064-.16.319-.266.638-.426.904-.106.266-.213.532-.266.798-.053.213-.16.426-.213.639v.265l.958.16c.213.053.693.373.746.585.106.532.106 1.011-.48 1.33-.212.107-.425.213-.691.16-.32-.053-.586-.106-.959-.16-.053.107-.106.213-.106.266-.054.958.053 1.916.106 2.873v.053c.053.266.16.586.213.852.106.372.16.744.266 1.064.107.319.267.638.373.957.053.16.16.32.266.479a9.932 9.932 0 011.065-.532c.266-.106.692-.106.905.106.213.16.32.373.426.639.107.319 0 .585-.16.851-.16.32-.532.426-.798.638a1.114 1.114 0 00-.32.213v.16a13.882 13.882 0 002.237 2.447c.852.745 1.81 1.33 2.822 1.756l.16-.48c.106-.265.212-.584.372-.797.32-.479 1.012-.532 1.438-.213.426.32.532 1.064.213 1.543-.107.16-.16.319-.213.479 0 .053 0 .16.053.212.373.054.692.107 1.011.16.373.053.8.16 1.172.213 1.065.053 2.13 0 3.141-.107h.054c.319-.053.639-.16.958-.212.213-.054.32-.16.213-.373-.053-.106-.053-.16-.107-.266a3.424 3.424 0 00-.16-.425c-.159-.32-.052-.639.107-.905.107-.106.213-.213.266-.319.16-.053.267-.106.32-.106.213-.107.426 0 .586.053a.952.952 0 01.532.479c.16.319.266.691.426 1.064 1.012-.426 1.917-1.011 2.769-1.703.905-.745 1.704-1.543 2.343-2.5v-.16a5.736 5.736 0 01-.586-.319c-.16-.106-.266-.213-.373-.266-.266-.213-.266-.479-.32-.798.054-.16.054-.32.16-.479.107-.213.32-.425.586-.479.213-.053.426-.106.586-.053.372.16.745.373 1.118.585.053-.053.106-.106.106-.16.107-.159.16-.372.267-.584.16-.426.266-.905.425-1.33.107-.426.267-.905.32-1.33.053-.373.106-.745.106-1.118v-1.755c0-.107-.053-.213-.106-.32-.213.054-.373.054-.532.107-.16.053-.267.053-.426.106-.107 0-.16.054-.267 0-.585-.16-.958-.425-.905-1.17.053-.426.32-.798.692-.904l.8-.16c.052 0 .159 0 .265-.053 0-.16 0-.32-.053-.426l-.32-.958c-.106-.265-.16-.478-.266-.744-.16-.32-.32-.585-.479-.852-.213-.319-.373-.691-.585-1.01-.214-.32-.427-.639-.693-.905a15.245 15.245 0 00-.905-1.01c-.213.265-.426.478-.586.691-.372.479-.905.585-1.437.32a1.01 1.01 0 01-.373-1.49c.213-.266.426-.532.692-.852v-.16c-.16-.105-.32-.212-.479-.318-.266-.16-.48-.266-.745-.426l-.64-.32c-.212-.105-.425-.212-.691-.265l-.959-.32c-.16-.053-.373-.106-.532-.159-.32-.053-.586-.16-.906-.213-.106 0-.212-.053-.319-.053-.32-.053-.639-.053-1.012-.053v.692c0 .266 0 .478-.106.744-.16.32-.373.532-.692.586-.692.16-1.331-.373-1.278-1.118v-.957c-.586.053-1.118.106-1.65.212-.373.054-.746.213-1.119.32-.266.106-.585.16-.852.266a2.711 2.711 0 01-.372.16l-.64.319c-.319.16-.585.319-.905.478-.266.16-.479.32-.745.48v.159c.266.319.48.585.692.904.107.16.16.372.107.532-.054.426-.213.745-.64.904-.425.213-.958.054-1.17-.266-.054-.319-.267-.585-.48-.797zM44.47 47.59h16.985c.586 0 1.172.107 1.757-.106.16-.053.267-.106.426-.213.267-.16.533-.372.692-.691.107-.266.32-.48.32-.745.053-.958.053-1.969.053-2.926v-4.203c0-.32-.106-.585-.266-.851-.48-.692-1.171-1.01-1.97-1.01H27.165c-.373 0-.799 0-1.172.052-.266.053-.585.16-.798.32-.586.425-.959.957-.959 1.649v6.384c0 .532.16 1.01.48 1.436.266.266.532.532.851.639.267.106.586.16.905.16 5.964.105 11.98.105 17.997.105zm-.053-23.46h-18.05c-.532 0-1.065.159-1.438.531-.479.373-.745.905-.745 1.596v6.331c0 .532.16 1.01.532 1.436.267.32.64.586 1.065.639.426.106.852.053 1.278.106h.746c.798 0 1.597.053 2.396.053 2.928 0 5.857 0 8.732-.053 1.065 0 2.076 0 3.141.053h10.383c3.301 0 6.549 0 9.85-.053.586 0 1.172-.106 1.65-.532.427-.372.693-.85.693-1.436v-6.863c0-.426-.213-.798-.426-1.064-.426-.532-1.012-.798-1.704-.798-6.07.053-12.086.053-18.103.053zM64.65 57.539V51.42c0-.053 0-.16-.053-.213-.16-.372-.32-.691-.586-.958-.373-.319-.799-.532-1.278-.532H26.42c-.48 0-.906.107-1.279.373-.585.425-.958 1.01-.958 1.755v6.278c0 .479.107.905.373 1.33.372.585.905.851 1.544.958h34.343c.106 0 .213 0 .32-.053.372-.32.691-.639 1.01-.905.214-.213.48-.372.693-.532.266-.213.586-.372.905-.532.16-.106.373-.213.532-.32.267-.265.48-.372.746-.531zm-5.857 4.894H45.481v3.245h4.259c.426 0 .852.107 1.172.373.426.32.745.692.852 1.224.053.16.106.372.16.531h4.578l.16-.478.16-.639c.053-.16.106-.319.16-.425l.32-.798c.106-.213.159-.48.265-.692.16-.266.32-.585.48-.851.213-.32.372-.639.585-.958 0-.212.107-.319.16-.532zm-9.052 5.373h-1.81c-.053 0-.106.054-.16.054-.213.16-.372.266-.585.425-.32.213-.64.426-.959.586-.213.16-.426.266-.639.425-.266.16-.532.373-.798.532.16.107 4.685.107 4.951 0v-2.022zm-5.697.054v-.053h-4.898c0 .106-.053.106-.053.16v1.808c0 .16.106.16.212.16h1.491c.054 0 .16 0 .213-.054.267-.16.48-.319.746-.478l1.597-1.118c.213-.106.426-.266.692-.425z" fill="url(#paint1_linear)"/><path d="M80.622 25.777v9.896c0 .265 0 .478-.16.691-.16.266-.372.479-.745.479-.266 0-.532 0-.799-.16-.319-.266-.425-.585-.425-1.01V25.99c0-.106 0-.16-.054-.32-.372.373-.745.692-1.277.533a1.134 1.134 0 01-.8-.958c0-.585.427-.904.746-1.223l1.598-1.596c.266-.266.532-.426.905-.426.32.053.585.213.798.426.48.478.959.957 1.438 1.49l.639.638c.373.478.213 1.33-.426 1.596-.532.212-.905.053-1.278-.32-.053-.053-.106-.053-.16-.106.054 0 0 0 0 .053z" fill="url(#paint2_linear)"/><path d="M73.221 29.98c0 .053-.053.16-.053.213v3.298c0 .798.053 1.596.053 2.394s-.053 1.543-.106 2.341c0 .373-.32.585-.586.745a1.043 1.043 0 01-1.331-.532c-.053-.16-.053-.372-.053-.532v-7.874c-.107.053-.213.053-.213.107-.266.266-.586.479-1.012.372-.32-.053-.585-.213-.745-.479-.16-.266-.16-.585-.107-.904.053-.213.213-.373.373-.532.639-.692 1.331-1.33 1.97-1.969.532-.532 1.065-.425 1.597.054l1.438 1.436.639.639c.266.319.32 1.17-.16 1.49-.32.212-.639.318-.958.212-.213-.053-.426-.266-.746-.479z" fill="url(#paint3_linear)"/><path d="M80.622 47.59v1.276c0 .213-.372.691-.639.745-.16 0-.266.106-.426.106-.426 0-.798-.372-.958-.745-.106-.319-.053-.638-.106-.957V46.79c0-.425.106-.798.479-1.064.266-.213.745-.213 1.011-.106.267.106.426.319.586.585.053.053.053.16.053.213v1.17z" fill="url(#paint4_linear)"/><path d="M80.622 41.152v1.117c0 .585-.585 1.117-1.224.958-.426-.107-.692-.32-.799-.745-.053-.213-.106-.426-.106-.638v-1.596a1.5 1.5 0 01.213-.798 1.04 1.04 0 01.692-.426c.372 0 .745 0 1.011.372.107.16.213.32.213.48v1.276z" fill="url(#paint5_linear)"/><path d="M73.168 43.28c0 .479-.053.905-.053 1.383 0 .213-.16.426-.373.532-.16.054-.32.213-.48.213-.212 0-.425-.053-.585-.106a1.62 1.62 0 01-.426-.426c-.053-.053-.053-.106-.053-.213v-2.66c0-.266.532-.744.799-.744.532-.054.905.106 1.171.532.053.053.053.106.053.16-.053.425-.053.904-.053 1.33z" fill="url(#paint6_linear)"/><path d="M72.476 70.89c.106.107.213.214.266.32.32.266.426.639.373 1.01-.053.32-.373.746-.64.799-.372.053-.798.106-1.117-.213-.373-.425-.799-.798-1.172-1.224-.213-.265-.266-.638-.106-.904.266-.479.586-.904.852-1.383.213-.32.426-.692.639-1.01.266-.373.479-.746.745-1.065.16-.213.373-.372.64-.372.425-.053.745.053 1.01.425.16.266.267.745.107 1.011-.32.532-.639 1.01-.958 1.543-.213.32-.426.692-.692 1.01.053-.106.053 0 .053.054z" fill="url(#paint7_linear)"/><path d="M29.507 39.078c1.758-.107 3.195 1.49 3.142 3.138-.053 1.862-1.491 3.192-3.195 3.192-1.863-.053-3.141-1.33-3.195-3.139 0-1.702 1.385-3.245 3.248-3.191zm1.065 3.138c.054-.585-.479-1.064-1.065-1.064-.639 0-1.065.48-1.065 1.064 0 .639.48 1.064 1.065 1.064.48.053 1.119-.425 1.065-1.064z" fill="url(#paint8_linear)"/><path d="M36.908 42.216v1.17c0 .692-.692 1.064-1.278.958-.319-.053-.745-.426-.745-.851v-2.394c0-.426.213-.745.692-.851.48-.16.959 0 1.225.478a.985.985 0 01.106.373v1.117z" fill="url(#paint9_linear)"/><path d="M59.857 43.333h.586c.479 0 .798.32.958.745.106.426 0 .745-.266 1.011-.213.213-.48.266-.746.32-.32 0-.639.052-.958 0-.373-.054-.745-.16-.959-.533-.319-.532-.106-1.117.373-1.436.16-.107.32-.107.48-.107h.532z" fill="url(#paint10_linear)"/><path d="M54.532 43.333h.64c.425 0 .692.213.851.586.266.532-.053 1.064-.426 1.33-.16.106-.372.106-.532.16-.32 0-.692.052-1.012 0-.426-.054-.798-.214-1.011-.64-.16-.318 0-.957.266-1.17.213-.16.426-.266.692-.266h.532z" fill="url(#paint11_linear)"/><path d="M49.208 45.461c-.32-.053-.639-.053-.905-.16-.213-.053-.373-.265-.48-.425-.16-.16-.16-.425-.106-.638.053-.373.213-.639.532-.798.16-.053.373-.107.533-.107h1.065c.479-.053.958.48.958 1.011 0 .479-.213.745-.532.958-.16.106-.373.106-.533.16h-.532z" fill="url(#paint12_linear)"/><path d="M54.586 39.077h.639c.425 0 .639.213.798.586.266.532 0 1.17-.532 1.383-.266.106-.586.106-.905.106-.267 0-.533-.053-.799-.053-.48-.053-.799-.426-.852-.904-.053-.48.16-.852.586-1.064.053-.054.106-.054.213-.054h.852z" fill="url(#paint13_linear)"/><path d="M58.952 39.077h1.757c.213 0 .426.16.532.373.107.16.213.372.213.585 0 .16-.053.372-.106.532-.213.426-.586.532-1.012.532h-1.118c-.426 0-.745-.266-.852-.692-.16-.532 0-.957.48-1.223l.106-.107z" fill="url(#paint14_linear)"/><path d="M49.261 41.152c-.32 0-.532 0-.799-.053-.319-.053-.532-.266-.692-.532-.106-.213-.106-.372-.106-.585 0-.373.479-.905.852-.905h1.33c.533 0 .853.426.906.905.053.479-.16.798-.533 1.01 0 .054-.106.107-.16.107-.265 0-.532.053-.798.053z" fill="url(#paint15_linear)"/><path d="M29.507 32.587h-.532a3.004 3.004 0 01-.639-.213 2.488 2.488 0 01-.532-.266c-.267-.213-.533-.425-.8-.691-.319-.32-.478-.692-.585-1.118-.106-.372-.16-.744-.106-1.117a3.35 3.35 0 01.532-1.543c.373-.532.799-.904 1.385-1.17a3.069 3.069 0 011.544-.266c.798.106 1.49.425 2.076 1.01.266.267.426.586.586.905.266.585.266 1.117.213 1.703-.053.319-.16.638-.32.957-.213.373-.479.745-.798 1.01-.213.16-.533.32-.799.48-.373.319-.799.372-1.225.319zm0-2.075c.586.053 1.065-.479 1.065-1.064 0-.585-.585-1.064-1.118-1.064-.532 0-1.065.532-1.065 1.117.053.48.426 1.064 1.118 1.011z" fill="url(#paint16_linear)"/><path d="M36.908 29.448v1.117c0 .48-.32.851-.745.905-.532.16-1.012-.053-1.225-.532-.053-.107-.053-.266-.053-.426 0-.532-.053-1.064-.053-1.65 0-.318.053-.584.106-.903 0-.213.48-.639.692-.639.267 0 .533-.053.8.107.265.16.478.372.478.691v1.33z" fill="url(#paint17_linear)"/><path d="M54.639 32.587h-.692c-.48 0-.852-.426-.905-.905 0-.319 0-.638.266-.904.213-.213.532-.266.852-.32.266-.052.585 0 .852 0 .372.054.745.16.958.533.32.479.16 1.17-.426 1.49-.32.212-.639.053-.905.106z" fill="url(#paint18_linear)"/><path d="M49.261 28.33h-.692c-.373 0-.692-.212-.852-.584-.266-.639-.053-1.064.426-1.384a.9.9 0 01.532-.16h1.065c.48.107.8.32 1.012.746.213.478-.106 1.064-.532 1.33-.32.16-.693 0-.959.053z" fill="url(#paint19_linear)"/><path d="M59.857 28.33h-.639c-.373 0-.745-.318-.852-.69-.16-.586-.053-.905.373-1.224.16-.107.373-.16.586-.213.319-.053.639 0 .958 0 .48 0 .958.266 1.065.798.106.479-.107 1.01-.533 1.17-.053.053-.106.107-.213.107-.213.053-.479.053-.745.053z" fill="url(#paint20_linear)"/><path d="M59.857 32.587h-.586a.913.913 0 01-.905-.692c-.16-.532-.053-.904.426-1.223.16-.107.426-.16.639-.16.266-.053.586-.053.852 0 .32.053.692.107.905.372.213.267.32.532.266.905-.106.372-.32.585-.639.745-.053.053-.16.053-.213.053h-.745z" fill="url(#paint21_linear)"/><path d="M50.22 30.618c.16.16.319.32.425.532.16.266.107.586 0 .905-.106.266-.319.425-.585.532h-1.598c-.319 0-.585-.266-.745-.532-.106-.213-.106-.373-.106-.585 0-.373.372-.745.745-.905.426-.106.852-.053 1.278-.053.213 0 .373.053.585.106z" fill="url(#paint22_linear)"/><path d="M54.586 28.384h-.64c-.425.053-.958-.479-.958-.904 0-.32 0-.639.267-.852.213-.16.426-.319.745-.319.373 0 .745-.053 1.065 0 .426.053.799.213.958.639.213.532.054 1.01-.479 1.33-.32.16-.692 0-.958.106z" fill="url(#paint23_linear)"/><path d="M32.649 54.984c.053 1.809-1.491 3.245-3.248 3.192-1.757-.053-3.035-1.49-3.088-3.139 0-1.755 1.384-3.245 3.3-3.192 1.598 0 3.09 1.383 3.036 3.14zm-2.077 0c.054-.585-.479-1.064-1.011-1.064-.586 0-1.118.585-1.118 1.064 0 .532.532 1.064 1.064 1.064.533.053 1.119-.479 1.065-1.064z" fill="url(#paint24_linear)"/><path d="M36.908 55.037v1.17c0 .373-.213.586-.426.745-.319.266-.692.213-1.011.107-.266-.107-.586-.373-.586-.692v-2.66c0-.32.426-.638.692-.691.426-.054.799 0 1.065.372.107.16.213.266.213.479.053.319.053.745.053 1.17z" fill="url(#paint25_linear)"/><path d="M60.975 53.76c-.586.267-1.171.16-1.704.16-.32 0-.745-.372-.905-.691-.213-.532.053-.905.426-1.224a.605.605 0 01.426-.16h1.331c.32 0 .799.426.852.745.106.48 0 .851-.426 1.17z" fill="url(#paint26_linear)"/><path d="M58.792 56.26c.532-.265 1.065-.159 1.544-.159.373 0 .692.16.959.479.319.479.212 1.01-.213 1.383-.213.16-.426.213-.746.213h-.958c-.426 0-.746-.213-.959-.532-.106-.213-.213-.479-.106-.798.16-.266.32-.426.48-.585z" fill="url(#paint27_linear)"/><path d="M49.208 58.176h-.533c-.425-.053-.745-.213-.905-.585-.266-.639-.053-1.064.426-1.383.16-.107.32-.107.533-.16h1.065c.479.053 1.011.372 1.011 1.01 0 .373-.106.692-.426.852-.16.106-.32.16-.532.213-.213.106-.426.053-.64.053z" fill="url(#paint28_linear)"/><path d="M49.208 53.92h-.48c-.692-.053-1.224-.585-1.064-1.33.053-.32.266-.532.585-.692.48-.213.959-.053 1.438-.106.373-.053.639.16.852.372.213.213.213.905.106 1.117-.213.426-.585.586-1.011.586-.16.053-.266.053-.426.053z" fill="url(#paint29_linear)"/><path d="M52.988 53.229v-.532c.054-.373.213-.586.586-.745.213-.106.426-.106.64-.106h.904c.426 0 .746.266.905.638.267.585 0 1.01-.426 1.33-.106.106-.32.16-.479.16-.373 0-.799.053-1.171 0-.373-.054-.64-.16-.852-.532 0-.107-.053-.107-.107-.213z" fill="url(#paint30_linear)"/><path d="M54.532 58.176h-.585c-.426 0-1.012-.425-.959-.958 0-.425.054-.744.48-.957.16-.107.372-.16.585-.16.32-.053.64 0 .959 0 .426 0 .745.213 1.011.532.266.373.16 1.064-.213 1.33a1.27 1.27 0 01-.745.266c-.213-.053-.373-.053-.532-.053z" fill="url(#paint31_linear)"/><defs><linearGradient id="paint0_linear" x1="17.5" y1="17.5" x2="90.5" y2="90.5" gradientUnits="userSpaceOnUse"><stop stop-color="#FFD53F"/><stop offset="1" stop-color="#FF9E57"/></linearGradient><linearGradient id="paint1_linear" x1="54" y1="28.4" x2="54" y2="79.6" gradientUnits="userSpaceOnUse"><stop stop-color="#387AF9"/><stop offset="1" stop-color="#1A4BF8"/></linearGradient><linearGradient id="paint2_linear" x1="54" y1="28.4" x2="54" y2="79.6" gradientUnits="userSpaceOnUse"><stop stop-color="#387AF9"/><stop offset="1" stop-color="#1A4BF8"/></linearGradient><linearGradient id="paint3_linear" x1="54" y1="28.4" x2="54" y2="79.6" gradientUnits="userSpaceOnUse"><stop stop-color="#387AF9"/><stop offset="1" stop-color="#1A4BF8"/></linearGradient><linearGradient id="paint4_linear" x1="54" y1="28.4" x2="54" y2="79.6" gradientUnits="userSpaceOnUse"><stop stop-color="#387AF9"/><stop offset="1" stop-color="#1A4BF8"/></linearGradient><linearGradient id="paint5_linear" x1="54" y1="28.4" x2="54" y2="79.6" gradientUnits="userSpaceOnUse"><stop stop-color="#387AF9"/><stop offset="1" stop-color="#1A4BF8"/></linearGradient><linearGradient id="paint6_linear" x1="54" y1="28.4" x2="54" y2="79.6" gradientUnits="userSpaceOnUse"><stop stop-color="#387AF9"/><stop offset="1" stop-color="#1A4BF8"/></linearGradient><linearGradient id="paint7_linear" x1="54" y1="28.4" x2="54" y2="79.6" gradientUnits="userSpaceOnUse"><stop stop-color="#387AF9"/><stop offset="1" stop-color="#1A4BF8"/></linearGradient><linearGradient id="paint8_linear" x1="54" y1="28.4" x2="54" y2="79.6" gradientUnits="userSpaceOnUse"><stop stop-color="#387AF9"/><stop offset="1" stop-color="#1A4BF8"/></linearGradient><linearGradient id="paint9_linear" x1="54" y1="28.4" x2="54" y2="79.6" gradientUnits="userSpaceOnUse"><stop stop-color="#387AF9"/><stop offset="1" stop-color="#1A4BF8"/></linearGradient><linearGradient id="paint10_linear" x1="54" y1="28.4" x2="54" y2="79.6" gradientUnits="userSpaceOnUse"><stop stop-color="#387AF9"/><stop offset="1" stop-color="#1A4BF8"/></linearGradient><linearGradient id="paint11_linear" x1="54" y1="28.4" x2="54" y2="79.6" gradientUnits="userSpaceOnUse"><stop stop-color="#387AF9"/><stop offset="1" stop-color="#1A4BF8"/></linearGradient><linearGradient id="paint12_linear" x1="54" y1="28.4" x2="54" y2="79.6" gradientUnits="userSpaceOnUse"><stop stop-color="#387AF9"/><stop offset="1" stop-color="#1A4BF8"/></linearGradient><linearGradient id="paint13_linear" x1="54" y1="28.4" x2="54" y2="79.6" gradientUnits="userSpaceOnUse"><stop stop-color="#387AF9"/><stop offset="1" stop-color="#1A4BF8"/></linearGradient><linearGradient id="paint14_linear" x1="54" y1="28.4" x2="54" y2="79.6" gradientUnits="userSpaceOnUse"><stop stop-color="#387AF9"/><stop offset="1" stop-color="#1A4BF8"/></linearGradient><linearGradient id="paint15_linear" x1="54" y1="28.4" x2="54" y2="79.6" gradientUnits="userSpaceOnUse"><stop stop-color="#387AF9"/><stop offset="1" stop-color="#1A4BF8"/></linearGradient><linearGradient id="paint16_linear" x1="54" y1="28.4" x2="54" y2="79.6" gradientUnits="userSpaceOnUse"><stop stop-color="#387AF9"/><stop offset="1" stop-color="#1A4BF8"/></linearGradient><linearGradient id="paint17_linear" x1="54" y1="28.4" x2="54" y2="79.6" gradientUnits="userSpaceOnUse"><stop stop-color="#387AF9"/><stop offset="1" stop-color="#1A4BF8"/></linearGradient><linearGradient id="paint18_linear" x1="54" y1="28.4" x2="54" y2="79.6" gradientUnits="userSpaceOnUse"><stop stop-color="#387AF9"/><stop offset="1" stop-color="#1A4BF8"/></linearGradient><linearGradient id="paint19_linear" x1="54" y1="28.4" x2="54" y2="79.6" gradientUnits="userSpaceOnUse"><stop stop-color="#387AF9"/><stop offset="1" stop-color="#1A4BF8"/></linearGradient><linearGradient id="paint20_linear" x1="54" y1="28.4" x2="54" y2="79.6" gradientUnits="userSpaceOnUse"><stop stop-color="#387AF9"/><stop offset="1" stop-color="#1A4BF8"/></linearGradient><linearGradient id="paint21_linear" x1="54" y1="28.4" x2="54" y2="79.6" gradientUnits="userSpaceOnUse"><stop stop-color="#387AF9"/><stop offset="1" stop-color="#1A4BF8"/></linearGradient><linearGradient id="paint22_linear" x1="54" y1="28.4" x2="54" y2="79.6" gradientUnits="userSpaceOnUse"><stop stop-color="#387AF9"/><stop offset="1" stop-color="#1A4BF8"/></linearGradient><linearGradient id="paint23_linear" x1="54" y1="28.4" x2="54" y2="79.6" gradientUnits="userSpaceOnUse"><stop stop-color="#387AF9"/><stop offset="1" stop-color="#1A4BF8"/></linearGradient><linearGradient id="paint24_linear" x1="54" y1="28.4" x2="54" y2="79.6" gradientUnits="userSpaceOnUse"><stop stop-color="#387AF9"/><stop offset="1" stop-color="#1A4BF8"/></linearGradient><linearGradient id="paint25_linear" x1="54" y1="28.4" x2="54" y2="79.6" gradientUnits="userSpaceOnUse"><stop stop-color="#387AF9"/><stop offset="1" stop-color="#1A4BF8"/></linearGradient><linearGradient id="paint26_linear" x1="54" y1="28.4" x2="54" y2="79.6" gradientUnits="userSpaceOnUse"><stop stop-color="#387AF9"/><stop offset="1" stop-color="#1A4BF8"/></linearGradient><linearGradient id="paint27_linear" x1="54" y1="28.4" x2="54" y2="79.6" gradientUnits="userSpaceOnUse"><stop stop-color="#387AF9"/><stop offset="1" stop-color="#1A4BF8"/></linearGradient><linearGradient id="paint28_linear" x1="54" y1="28.4" x2="54" y2="79.6" gradientUnits="userSpaceOnUse"><stop stop-color="#387AF9"/><stop offset="1" stop-color="#1A4BF8"/></linearGradient><linearGradient id="paint29_linear" x1="54" y1="28.4" x2="54" y2="79.6" gradientUnits="userSpaceOnUse"><stop stop-color="#387AF9"/><stop offset="1" stop-color="#1A4BF8"/></linearGradient><linearGradient id="paint30_linear" x1="54" y1="28.4" x2="54" y2="79.6" gradientUnits="userSpaceOnUse"><stop stop-color="#387AF9"/><stop offset="1" stop-color="#1A4BF8"/></linearGradient><linearGradient id="paint31_linear" x1="54" y1="28.4" x2="54" y2="79.6" gradientUnits="userSpaceOnUse"><stop stop-color="#387AF9"/><stop offset="1" stop-color="#1A4BF8"/></linearGradient></defs></svg>