<svg width="108" height="108" fill="none" xmlns="http://www.w3.org/2000/svg"><path fill-rule="evenodd" clip-rule="evenodd" d="M13.492 19.634a53.797 53.797 0 012.948-3.195 1.5 1.5 0 012.121 2.122 50.797 50.797 0 00-2.783 3.017 1.5 1.5 0 01-2.286-1.944zm5.972-4.028a1.5 1.5 0 01.17-2.114C28.822 5.682 40.039 1.499 51.395.945a1.5 1.5 0 11.147 2.996c-10.72.524-21.298 4.47-29.963 11.837a1.5 1.5 0 01-2.114-.172zm-6.554 7.106a1.5 1.5 0 01.343 2.094c-.16.222-.318.446-.474.67a1.5 1.5 0 11-2.465-1.71c.165-.238.333-.475.502-.71a1.5 1.5 0 012.093-.344zM2.37 55.035a1.5 1.5 0 011.572 1.425c.523 10.719 4.469 21.297 11.836 29.962a1.5 1.5 0 01-2.286 1.944C5.682 79.179 1.5 67.963.945 56.606a1.5 1.5 0 011.425-1.571zM82.147 10.69a1.5 1.5 0 012.087-.377c.238.165.475.332.711.502a1.5 1.5 0 11-1.75 2.436 48.1 48.1 0 00-.67-.473 1.5 1.5 0 01-.378-2.088zm4.105 2.972a1.5 1.5 0 012.114-.171 53.796 53.796 0 013.195 2.947 1.5 1.5 0 11-2.121 2.122 50.824 50.824 0 00-3.017-2.784 1.5 1.5 0 01-.171-2.114zM16.44 89.439a1.5 1.5 0 012.121 0 50.795 50.795 0 003.017 2.784 1.5 1.5 0 01-1.943 2.285 53.83 53.83 0 01-3.195-2.947 1.5 1.5 0 010-2.122zm75.954-69.976a1.5 1.5 0 012.114.171c7.811 9.187 11.993 20.403 12.548 31.76a1.5 1.5 0 01-2.997.146c-.523-10.719-4.469-21.297-11.836-29.962a1.5 1.5 0 01.171-2.115zM22.713 95.091a1.5 1.5 0 012.093-.343c.223.16.446.317.67.473a1.5 1.5 0 11-1.71 2.465 52.52 52.52 0 01-.71-.502 1.5 1.5 0 01-.343-2.093zm32.322 10.539a1.5 1.5 0 011.426-1.571c10.718-.524 21.297-4.47 29.962-11.837a1.5 1.5 0 111.943 2.286c-9.186 7.811-20.403 11.993-31.76 12.547a1.5 1.5 0 01-1.57-1.425zM97.31 82.146a1.5 1.5 0 01.378 2.088c-.165.238-.333.475-.502.71a1.5 1.5 0 01-2.437-1.75c.16-.222.318-.446.474-.67a1.5 1.5 0 012.087-.378zm-2.972 4.105a1.5 1.5 0 01.171 2.115 53.828 53.828 0 01-2.947 3.195 1.5 1.5 0 01-2.121-2.122 50.825 50.825 0 002.783-3.016 1.5 1.5 0 012.114-.172z" fill="url(#paint0_linear)" fill-opacity=".72"/><path d="M86 61.966c-.379.979-.65 2.066-1.191 2.936-1.354 2.175-3.411 3.154-5.956 3.209h-25.34c-.596-.055-1.029-.49-1.029-1.034 0-.489.433-.924 1.029-.978h25.34c2.003 0 3.574-.816 4.548-2.61a5.168 5.168 0 00.596-2.339c.054-8.863 0-17.726.054-26.535 0-.598-.325-.598-.758-.598H42.089v20.608c-.055.544-.542.925-1.03.925-.541-.055-.866-.38-.974-.925-.054-.163 0-.38 0-.598 0-8.21.054-16.421 0-24.578-.054-3.806 2.544-6.85 5.956-7.34a.41.41 0 00.216-.109h33.516l.488.163c2.003.38 3.573 1.36 4.602 3.154.487.87.758 1.903 1.137 2.882v33.767zM42.142 31.842h41.963c-.054-1.36-.108-2.719-.217-4.024 0-.272-.108-.598-.27-.87-.975-2.012-2.6-2.99-4.82-2.99H51.835c-1.624 0-3.248-.055-4.873 0-2.49.054-4.602 1.957-4.819 4.35-.108 1.142 0 2.283 0 3.534z" fill="url(#paint1_linear)"/><path d="M22.108 46.197c.325-.924.542-1.903 1.03-2.773 1.19-2.12 3.031-3.263 5.414-3.371 2.815-.11 5.63-.055 8.446-.055.65 0 1.083.435 1.083.979 0 .598-.433 1.033-1.137 1.033h-7.689c-3.086 0-5.197 2.067-5.197 5.166v2.773H37.16c.541.109.92.435.92.979.054.49-.379.924-.92 1.033H24.112c0 .272-.054.49-.054.707v26.154c0 3.1 2.111 5.22 5.198 5.22h31.566c3.14 0 5.198-2.066 5.198-5.274v-7.939c0-.707.488-1.196 1.03-1.196.595 0 .974.49.974 1.196 0 2.773.054 5.547-.054 8.265a8.125 8.125 0 01-.758 2.991c-.92 2.12-2.654 3.317-4.874 3.806-.162.055-.27.109-.433.109H28.118c-.108-.054-.216-.109-.27-.109-2.112-.38-3.79-1.468-4.82-3.371-.486-.87-.703-1.849-1.028-2.773.108-11.093.108-22.349.108-33.55z" fill="url(#paint2_linear)"/><path d="M40.03 74.962c-2.978-.055-5.36-1.74-6.389-4.296-.974-2.447-.27-5.383 1.625-7.286a329.321 329.321 0 014.385-4.35c1.3-1.305 2.924-2.012 4.765-1.958.704 0 1.137.38 1.137.98 0 .597-.433 1.032-1.083 1.032-1.516 0-2.707.653-3.736 1.686l-4.223 4.241c-1.841 1.958-1.787 4.676.162 6.634 1.679 1.74 4.603 1.686 6.444-.054a172.202 172.202 0 004.44-4.46c.974-.978 1.462-2.12 1.462-3.534 0-.815.325-1.196.974-1.196.596 0 .975.435.975 1.196 0 1.904-.704 3.535-2.004 4.84-1.516 1.522-3.032 3.1-4.602 4.567-1.191 1.36-2.761 1.903-4.332 1.958z" fill="url(#paint3_linear)"/><path d="M64.558 50.003c-.054 1.904-.65 3.48-1.895 4.785a163.752 163.752 0 01-4.331 4.35c-1.354 1.306-3.032 2.012-4.928 1.904-.325 0-.812-.218-.974-.435-.487-.653 0-1.577.866-1.523 1.841.109 3.249-.707 4.44-2.012a114.966 114.966 0 013.628-3.643c1.84-1.849 1.895-4.785.162-6.58-1.949-1.957-4.765-2.011-6.66-.108l-3.898 3.915c-1.137 1.087-1.841 2.392-1.733 4.024 0 .49-.162.924-.65.978-.324.055-.758-.054-1.028-.217-.217-.163-.271-.544-.325-.87-.054-1.794.487-3.371 1.733-4.676 1.57-1.632 3.14-3.372 4.873-4.84 3.79-3.208 9.692-1.033 10.666 3.86 0 .382.054.816.054 1.088z" fill="url(#paint4_linear)"/><path d="M56.707 52.45c-.27.381-.379.707-.65.98-2.436 2.5-4.927 4.947-7.363 7.449l-5.09 5.111c-.216.218-.433.435-.65.49-.433.162-.866.108-1.137-.327-.325-.435-.27-.924.109-1.305l3.898-3.915c2.49-2.501 4.927-5.002 7.418-7.45.542-.543 1.083-1.141 1.679-1.63.27-.218.758-.327 1.137-.218.216.109.379.49.65.816z" fill="url(#paint5_linear)"/><path d="M75.983 29.232a.973.973 0 01-.975-.979c0-.544.434-.979.975-1.033.541 0 .975.435.975.979 0 .543-.433 1.033-.975 1.033z" fill="url(#paint6_linear)"/><path d="M73.005 28.253c0 .544-.487.979-1.029.979-.541 0-.974-.49-.92-1.033 0-.544.433-.979 1.029-.979.487 0 .92.49.92 1.033z" fill="url(#paint7_linear)"/><path d="M79.936 27.22c.541 0 .974.49.974 1.033 0 .544-.487.979-.974.979-.542 0-.975-.49-.975-1.033 0-.544.433-.979.975-.979z" fill="url(#paint8_linear)"/><defs><linearGradient id="paint0_linear" x1="17.5" y1="17.5" x2="90.5" y2="90.5" gradientUnits="userSpaceOnUse"><stop stop-color="#FFD53F"/><stop offset="1" stop-color="#FF9E57"/></linearGradient><linearGradient id="paint1_linear" x1="54" y1="28.4" x2="54" y2="79.6" gradientUnits="userSpaceOnUse"><stop stop-color="#387AF9"/><stop offset="1" stop-color="#1A4BF8"/></linearGradient><linearGradient id="paint2_linear" x1="54" y1="28.4" x2="54" y2="79.6" gradientUnits="userSpaceOnUse"><stop stop-color="#387AF9"/><stop offset="1" stop-color="#1A4BF8"/></linearGradient><linearGradient id="paint3_linear" x1="54" y1="28.4" x2="54" y2="79.6" gradientUnits="userSpaceOnUse"><stop stop-color="#387AF9"/><stop offset="1" stop-color="#1A4BF8"/></linearGradient><linearGradient id="paint4_linear" x1="54" y1="28.4" x2="54" y2="79.6" gradientUnits="userSpaceOnUse"><stop stop-color="#387AF9"/><stop offset="1" stop-color="#1A4BF8"/></linearGradient><linearGradient id="paint5_linear" x1="54" y1="28.4" x2="54" y2="79.6" gradientUnits="userSpaceOnUse"><stop stop-color="#387AF9"/><stop offset="1" stop-color="#1A4BF8"/></linearGradient><linearGradient id="paint6_linear" x1="54" y1="28.4" x2="54" y2="79.6" gradientUnits="userSpaceOnUse"><stop stop-color="#387AF9"/><stop offset="1" stop-color="#1A4BF8"/></linearGradient><linearGradient id="paint7_linear" x1="54" y1="28.4" x2="54" y2="79.6" gradientUnits="userSpaceOnUse"><stop stop-color="#387AF9"/><stop offset="1" stop-color="#1A4BF8"/></linearGradient><linearGradient id="paint8_linear" x1="54" y1="28.4" x2="54" y2="79.6" gradientUnits="userSpaceOnUse"><stop stop-color="#387AF9"/><stop offset="1" stop-color="#1A4BF8"/></linearGradient></defs></svg>