<svg width="230" height="48" fill="none" xmlns="http://www.w3.org/2000/svg"><path d="M25.788 30h-6.15l-1.697-5.183H7.804L6.15 30H0L9.67 2.528c.425-.955.891-1.615 1.4-1.98C11.607.183 12.258 0 13.021 0c.764 0 1.372.169 1.824.506.48.337.905 1.01 1.272 2.022L25.787 30zm-9.204-10.112L13.021 8.006 9.29 19.888h7.295zm33.24-14.663H39.178c-1.244 0-2.12.238-2.63.716-.48.478-.72 1.306-.72 2.486v4.171h11.07l-.425 5.225H35.827V30h-5.895V6.11c0-2.22.48-3.793 1.442-4.72C32.364.463 34.046 0 36.42 0h13.403v5.225zm25.018 0H64.196c-1.245 0-2.121.238-2.63.716-.48.478-.721 1.306-.721 2.486v4.171h11.07l-.424 5.225H60.845V30h-5.896V6.11c0-2.22.481-3.793 1.442-4.72C57.381.463 59.063 0 61.44 0h13.403v5.225zM98.587 30h-8.992c-3.393 0-5.853-.646-7.38-1.938-1.499-1.32-2.248-3.455-2.248-6.405V0h5.896v21.657c0 1.18.268 1.995.805 2.444.538.45 1.513.674 2.927.674h8.992V30zm10.595 0h-5.895V0h5.895v30zm26.92-24.775h-10.646c-1.244 0-2.121.238-2.63.716-.48.478-.721 1.306-.721 2.486v4.171h11.07l-.424 5.225h-10.646V30h-5.895V6.11c0-2.22.48-3.793 1.442-4.72.989-.927 2.672-1.39 5.047-1.39h13.403v5.225zm24.763 0h-8.101V30h-5.895V5.225h-8.059V0h22.055v5.225zM185.35 30h-10.688c-3.393 0-5.782-.576-7.168-1.727-1.357-1.18-2.036-3.245-2.036-6.194V0h19.892v5.225h-13.996v7.036h9.797l-.424 5.225h-9.373v4.171c0 1.18.268 1.995.806 2.444.537.45 1.512.674 2.926.674h10.264V30zM214 30h-6.829l-5.895-11.124h-4.242V30h-5.895V6.447c0-2.248.523-3.877 1.569-4.888C193.754.519 195.507 0 197.967 0h5.005c2.998 0 5.373.913 7.126 2.739 1.781 1.798 2.672 4.087 2.672 6.868 0 2.022-.537 3.778-1.612 5.267-1.046 1.46-2.347 2.472-3.902 3.033L214 30zm-11.409-16.011c1.244 0 2.262-.422 3.053-1.264.82-.871 1.23-1.938 1.23-3.203 0-1.292-.395-2.331-1.187-3.118-.764-.786-1.796-1.18-3.096-1.18h-2.927c-1.753 0-2.63.886-2.63 2.655v6.11h5.557zM3.559 44.984h-2.32L.44 47H0l2.297-5.734h.254L4.8 47h-.45l-.792-2.016zm-2.176-.359h2.043l-.778-2.059a10 10 0 01-.234-.672 6.26 6.26 0 01-.23.68l-.801 2.051zM10.012 47h-.399v-5.71h3.13v.366h-2.731v2.422h2.578v.371h-2.578V47zm8.015 0h-.398v-5.71h3.129v.366h-2.73v2.422h2.578v.371h-2.579V47zm7.618 0v-5.71h.398V47h-.398zm6.015 0v-5.71h.399v5.335h2.722V47h-3.12zm8.11 0v-5.71h.398V47h-.398zm8.765-2.016h-2.32L45.418 47h-.441l2.296-5.734h.254L49.777 47h-.449l-.793-2.016zm-2.176-.359h2.043l-.777-2.059a10.033 10.033 0 01-.234-.672c-.07.25-.148.477-.23.68l-.802 2.051zM56.078 47h-.402v-5.336H53.82v-.375h4.114v.375h-1.856V47zm9.828 0h-3.12v-5.71h3.12v.366h-2.722v2.16h2.57v.368h-2.57v2.449h2.722V47zm15.524 0h-.403l-3.383-5.07h-.03c.03.604.046 1.06.046 1.367V47h-.383v-5.71h.399l3.379 5.062h.023a26.852 26.852 0 01-.035-1.336v-3.727h.387V47zm8.742 0H87.05v-5.71h3.12v.366h-2.72v2.16h2.57v.368h-2.57v2.449h2.723V47zm6.781 0h-.402v-5.336h-1.856v-.375h4.114v.375h-1.856V47zm11.258 0h-.328l-1.254-4.406a16.218 16.218 0 01-.234-.89 10.73 10.73 0 01-.18.78c-.076.295-.495 1.8-1.258 4.516h-.336l-1.57-5.71h.418l1 3.679.109.414c.034.125.064.243.09.355.029.11.053.216.074.32.024.102.044.205.063.31.062-.355.195-.893.398-1.614l.977-3.465h.441l1.145 3.977c.132.458.227.828.285 1.109a9.78 9.78 0 01.129-.598c.054-.21.457-1.707 1.207-4.488h.402L108.211 47zm11.391-2.863c0 .906-.227 1.623-.68 2.152-.453.526-1.078.79-1.875.79-.794 0-1.418-.264-1.871-.79-.453-.529-.68-1.249-.68-2.16 0-.909.228-1.624.684-2.145.458-.523 1.083-.785 1.875-.785.797 0 1.42.263 1.871.79.45.523.676 1.239.676 2.148zm-4.672 0c0 .817.182 1.45.547 1.898.364.446.888.668 1.57.668.687 0 1.212-.221 1.574-.664.365-.443.547-1.077.547-1.902 0-.823-.182-1.453-.547-1.89-.362-.441-.884-.661-1.566-.661-.68 0-1.205.221-1.575.664-.367.443-.55 1.072-.55 1.887zm10.386.375V47h-.398v-5.71h1.359c.709 0 1.232.13 1.571.394.338.26.507.653.507 1.18 0 .382-.101.705-.304.968-.201.263-.507.452-.918.566L128.684 47h-.477l-1.473-2.488h-1.418zm0-.344h1.09c.482 0 .856-.107 1.121-.32.266-.216.399-.534.399-.953 0-.435-.13-.752-.391-.95-.26-.198-.685-.297-1.273-.297h-.946v2.52zm12.2 2.832h-.489l-2.191-3.016-.762.672V47h-.398v-5.71h.398v2.968l.633-.633 2.238-2.336h.508l-2.34 2.414L137.516 47zm14.324-4.07c0 .552-.188.975-.563 1.27-.375.293-.906.44-1.593.44h-.883V47h-.399v-5.71h1.399c1.359 0 2.039.546 2.039 1.64zm-3.039 1.367h.785c.643 0 1.108-.106 1.394-.316.287-.214.43-.56.43-1.036 0-.44-.135-.765-.406-.976-.271-.214-.69-.32-1.258-.32h-.945v2.648zM157.082 47v-5.71h.398v5.335h2.723V47h-3.121zm10.859-2.016h-2.32L164.824 47h-.441l2.297-5.734h.254l2.25 5.734h-.45l-.793-2.016zm-2.175-.359h2.043l-.778-2.059a10.012 10.012 0 01-.234-.672c-.07.25-.147.477-.231.68l-.8 2.051zM175.484 47h-.402v-5.336h-1.855v-.375h4.113v.375h-1.856V47zm7.106 0h-.399v-5.71h3.129v.366h-2.73v2.422h2.578v.371h-2.578V47zm12.418-2.863c0 .906-.227 1.623-.68 2.152-.453.526-1.078.79-1.875.79-.794 0-1.418-.264-1.871-.79-.453-.529-.68-1.249-.68-2.16 0-.909.228-1.624.684-2.145.458-.523 1.083-.785 1.875-.785.797 0 1.421.263 1.871.79.451.523.676 1.239.676 2.148zm-4.672 0c0 .817.182 1.45.547 1.898.364.446.888.668 1.57.668.688 0 1.212-.221 1.574-.664.365-.443.547-1.077.547-1.902 0-.823-.182-1.453-.547-1.89-.362-.441-.884-.661-1.566-.661-.68 0-1.204.221-1.574.664-.367.443-.551 1.072-.551 1.887zm10.387.375V47h-.399v-5.71h1.36c.708 0 1.231.13 1.57.394.338.26.508.653.508 1.18 0 .382-.102.705-.305.968-.2.263-.506.452-.918.566L204.09 47h-.477l-1.472-2.488h-1.418zm0-.344h1.089c.482 0 .856-.107 1.122-.32.265-.216.398-.534.398-.953 0-.435-.13-.752-.391-.95-.26-.198-.684-.297-1.273-.297h-.945v2.52zM211.594 47l-2.129-5.273h-.031c.02.323.031.653.031.992V47h-.383v-5.71h.617l2.024 5.023h.023l2.024-5.024h.601V47h-.402v-4.328c0-.302.015-.615.047-.938h-.032L211.848 47h-.254z" fill="#fff"/><path d="M219 30V4a4 4 0 014-4h7v26a4 4 0 01-4 4h-7z" fill="#2695FC"/><path d="M222.02 26v-1.623c0-.74.101-1.276.304-1.609.199-.335.518-.503.957-.503.297 0 .541.074.732.222a.877.877 0 01.344.581h.034c.07-.33.202-.568.395-.713.193-.148.45-.221.77-.221.454 0 .808.172 1.063.517.254.342.381.808.381 1.398V26h-4.98zm1.973-1.106v-.642c0-.3-.045-.516-.133-.649-.089-.136-.235-.203-.44-.203-.19 0-.327.073-.408.22-.084.146-.126.377-.126.693v.581h1.107zm.837 0h1.298v-.72c0-.305-.056-.53-.167-.674-.111-.145-.281-.218-.511-.218-.413 0-.62.31-.62.927v.685zm2.17-8.266v3.003h-4.98v-3.003h.866v1.897h1.093V16.76h.865v1.765h1.284v-1.897H227zm0-4.565v1.106h-4.101v1.416h-.879v-3.938h.879v1.416H227zm0-6.872l-1.185.378v1.902l1.185.378V9.04l-5-1.84V5.848L227 4v1.191zm-2.071.642l-1.822.593a5.515 5.515 0 01-.334.092c.291.079 1.009.303 2.156.674V5.833z" fill="#fff"/></svg>