<svg width="218" height="48" fill="none" xmlns="http://www.w3.org/2000/svg"><path d="M26.224 30.587H19.97l-1.725-5.284H7.936l-1.682 5.284H0l9.834-28.01c.431-.973.906-1.646 1.424-2.019C11.803.186 12.465 0 13.242 0c.776 0 1.394.172 1.854.516.49.343.92 1.03 1.294 2.062l9.834 28.01zm-9.36-10.31L13.243 8.162 9.446 20.277h7.419zm33.803-14.95H39.841c-1.265 0-2.157.243-2.674.73-.489.487-.733 1.332-.733 2.535v4.253H47.69l-.431 5.327H36.434v12.415h-5.996V6.23c0-2.262.489-3.866 1.467-4.811C32.91.473 34.622 0 37.037 0h13.63v5.327zm25.442 0H65.282c-1.265 0-2.156.243-2.674.73-.489.487-.733 1.332-.733 2.535v4.253h11.257l-.431 5.327H61.875v12.415H55.88V6.23c0-2.262.488-3.866 1.466-4.811C58.352.473 60.063 0 62.479 0h13.63v5.327zm24.147 25.26h-9.144c-3.45 0-5.953-.658-7.505-1.976-1.524-1.346-2.286-3.522-2.286-6.53V0h5.995v22.081c0 1.203.273 2.034.82 2.492.546.458 1.538.687 2.976.687h9.144v5.327zm10.774 0h-5.995V0h5.995v30.587zm27.376-25.26H127.58c-1.265 0-2.157.243-2.674.73-.489.487-.734 1.332-.734 2.535v4.253h11.258l-.432 5.327h-10.826v12.415h-5.995V6.23c0-2.262.489-3.866 1.466-4.811C120.65.473 122.361 0 124.776 0h13.63v5.327zm25.182 0h-8.238v25.26h-5.995V5.327h-8.195V0h22.428v5.327zm24.9 25.26h-10.869c-3.451 0-5.881-.587-7.29-1.76-1.38-1.204-2.07-3.309-2.07-6.316V0h20.229v5.327h-14.233v7.174h9.963l-.431 5.327h-9.532v4.253c0 1.203.273 2.034.819 2.492.546.458 1.538.687 2.976.687h10.438v5.327zm29.135 0h-6.945l-5.995-11.341h-4.313v11.341h-5.996V6.573c0-2.291.532-3.952 1.596-4.983C197.034.53 198.817 0 201.319 0h5.089c3.048 0 5.464.93 7.246 2.792 1.812 1.833 2.718 4.168 2.718 7.003 0 2.062-.547 3.852-1.639 5.37-1.064 1.49-2.387 2.52-3.968 3.093l6.858 12.33zM206.02 14.263c1.265 0 2.3-.43 3.106-1.29.833-.887 1.25-1.975 1.25-3.264 0-1.317-.402-2.377-1.207-3.18-.777-.801-1.826-1.202-3.149-1.202h-2.976c-1.783 0-2.674.902-2.674 2.707v6.229h5.65zM3.619 45.865h-2.36L.45 47.92H0l2.336-5.846h.258l2.288 5.846h-.457l-.806-2.055zM1.406 45.5h2.078l-.79-2.1a10.2 10.2 0 01-.24-.684c-.07.255-.149.486-.233.693l-.815 2.09zm8.775 2.42h-.405v-5.822h3.182v.374H10.18v2.47h2.622v.378H10.18v2.6zm8.151 0h-.405v-5.822h3.182v.374h-2.777v2.47h2.622v.378h-2.622v2.6zm7.747 0v-5.822h.405v5.822h-.405zm6.117 0v-5.822h.405v5.44h2.769v.382h-3.174zm8.247 0v-5.822h.405v5.822h-.405zm8.914-2.055h-2.36l-.81 2.055h-.45l2.337-5.846h.258l2.288 5.846h-.457l-.806-2.055zm-2.213-.366h2.078l-.79-2.1a10.215 10.215 0 01-.24-.684c-.07.255-.149.486-.233.693l-.815 2.09zm9.883 2.421h-.409v-5.44h-1.887v-.382h4.183v.382h-1.887v5.44zm9.995 0h-3.174v-5.822h3.174v.374h-2.769v2.202h2.614v.375h-2.614v2.497h2.769v.374zm15.786 0H82.4l-3.44-5.17h-.032c.032.617.048 1.081.048 1.395v3.775h-.39v-5.822h.406l3.436 5.161h.024a27.442 27.442 0 01-.036-1.362v-3.8h.393v5.823zm8.89 0h-3.174v-5.822h3.174v.374H88.93v2.202h2.613v.375H88.93v2.497h2.768v.374zm6.896 0h-.409v-5.44h-1.887v-.382h4.183v.382h-1.887v5.44zm11.449 0h-.334l-1.275-4.492c-.106-.37-.185-.672-.238-.908a11.29 11.29 0 01-.183.796c-.077.3-.503 1.835-1.279 4.604h-.342l-1.597-5.822h.425l1.017 3.751a163.952 163.952 0 01.203.785c.029.111.054.22.075.327.024.103.045.208.064.314.063-.361.198-.91.405-1.645l.993-3.532h.449l1.164 4.054c.135.467.232.844.29 1.131.034-.191.078-.394.131-.61.056-.214.465-1.74 1.227-4.575h.41l-1.605 5.822zm11.583-2.919c0 .924-.23 1.656-.691 2.195-.461.536-1.096.804-1.907.804-.807 0-1.442-.268-1.903-.804-.46-.54-.691-1.274-.691-2.203 0-.927.232-1.656.695-2.187.467-.533 1.102-.8 1.907-.8.811 0 1.445.268 1.903.804.458.534.687 1.264.687 2.191zm-4.751 0c0 .834.186 1.479.556 1.936.371.454.903.68 1.597.68.699 0 1.233-.225 1.601-.676.371-.452.556-1.098.556-1.94 0-.839-.185-1.482-.556-1.928-.368-.448-.899-.673-1.593-.673-.691 0-1.225.226-1.601.677-.373.452-.56 1.093-.56 1.924zm10.563.382v2.537h-.405v-5.822h1.382c.72 0 1.253.134 1.597.402.344.265.516.666.516 1.203 0 .39-.103.72-.31.987-.203.269-.515.461-.933.578l1.577 2.652h-.485l-1.497-2.537h-1.442zm0-.35h1.108c.49 0 .87-.109 1.14-.327.27-.22.405-.544.405-.972 0-.443-.132-.766-.397-.967-.265-.202-.696-.303-1.295-.303h-.961v2.569zm12.406 2.887h-.497l-2.229-3.074-.774.685v2.39h-.405v-5.823h.405v3.026l.643-.645 2.277-2.381h.516l-2.379 2.46 2.443 3.362zm14.566-4.15c0 .563-.19.995-.572 1.295-.381.3-.921.45-1.621.45h-.897v2.405h-.405v-5.822h1.422c1.382 0 2.073.557 2.073 1.672zm-3.09 1.394h.798c.654 0 1.127-.107 1.418-.322.292-.218.437-.57.437-1.056 0-.449-.137-.78-.413-.995-.275-.218-.702-.327-1.279-.327h-.961v2.7zm8.421 2.756v-5.822h.405v5.44h2.769v.382h-3.174zm11.043-2.055h-2.359l-.811 2.055h-.448l2.335-5.846h.258l2.289 5.846h-.457l-.807-2.055zm-2.212-.366h2.077l-.79-2.1a10.44 10.44 0 01-.239-.684 6.24 6.24 0 01-.234.693l-.814 2.09zm9.883 2.421h-.409v-5.44h-1.887v-.382h4.183v.382h-1.887v5.44zm7.226 0h-.405v-5.822h3.181v.374h-2.776v2.47h2.622v.378h-2.622v2.6zm12.628-2.919c0 .924-.23 1.656-.691 2.195-.461.536-1.097.804-1.907.804-.808 0-1.442-.268-1.903-.804-.461-.54-.691-1.274-.691-2.203 0-.927.232-1.656.695-2.187.466-.533 1.102-.8 1.907-.8.81 0 1.445.268 1.903.804.458.534.687 1.264.687 2.191zm-4.751 0c0 .834.185 1.479.556 1.936.371.454.903.68 1.597.68.699 0 1.233-.225 1.601-.676.371-.452.556-1.098.556-1.94 0-.839-.185-1.482-.556-1.928-.368-.448-.899-.673-1.593-.673-.691 0-1.225.226-1.601.677-.373.452-.56 1.093-.56 1.924zm10.563.382v2.537h-.406v-5.822h1.383c.72 0 1.252.134 1.597.402.344.265.516.666.516 1.203 0 .39-.103.72-.31.987-.204.269-.515.461-.933.578l1.577 2.652h-.485l-1.497-2.537h-1.442zm0-.35h1.108c.49 0 .87-.109 1.14-.327.27-.22.405-.544.405-.972 0-.443-.132-.766-.397-.967-.265-.202-.697-.303-1.295-.303h-.961v2.569zm11.055 2.887l-2.165-5.376h-.032c.021.329.032.666.032 1.011v4.365h-.39v-5.822h.628l2.058 5.121h.024l2.057-5.121H218v5.822h-.409v-4.413c0-.307.016-.626.048-.955h-.032l-2.173 5.368h-.258z" fill="#fff"/></svg>