<svg width="447" height="133" viewBox="0 0 447 133" fill="none" xmlns="http://www.w3.org/2000/svg">
<path d="M0 10.176C0 6.848 1.184 4.32 3.552 2.592C5.984 0.864 9.504 0 14.112 0V28.128H41.088V10.176C41.088 6.848 42.272 4.32 44.64 2.592C47.072 0.864 50.592 0 55.2 0V58.752C55.2 62.08 53.984 64.608 51.552 66.336C49.184 68.064 45.696 68.928 41.088 68.928V40.32H14.112V58.752C14.112 62.08 12.896 64.608 10.464 66.336C8.096 68.064 4.608 68.928 0 68.928V10.176Z" fill="white"/>
<path d="M84.0173 68.928C79.7932 68.928 75.9533 68.16 72.4973 66.624C69.0413 65.088 66.3212 62.976 64.3372 60.288C62.3532 57.536 61.3612 54.432 61.3612 50.976V38.208C61.3612 34.688 62.3212 31.488 64.2412 28.608C66.1612 25.664 68.8493 23.36 72.3053 21.696C75.7613 20.032 79.6652 19.2 84.0173 19.2C88.3692 19.2 92.2732 20.032 95.7292 21.696C99.1852 23.36 101.873 25.664 103.793 28.608C105.713 31.488 106.673 34.688 106.673 38.208V50.976C106.673 54.432 105.681 57.536 103.697 60.288C101.713 62.976 98.9933 65.088 95.5373 66.624C92.0813 68.16 88.2412 68.928 84.0173 68.928ZM84.0173 57.6C87.0252 57.6 89.3613 56.928 91.0253 55.584C92.6893 54.24 93.5212 52.384 93.5212 50.016V38.88C93.5212 36.384 92.6573 34.368 90.9293 32.832C89.2653 31.296 86.9612 30.528 84.0173 30.528C81.0732 30.528 78.7373 31.296 77.0093 32.832C75.3453 34.368 74.5133 36.384 74.5133 38.88V50.016C74.5133 52.384 75.3453 54.24 77.0093 55.584C78.6733 56.928 81.0092 57.6 84.0173 57.6Z" fill="white"/>
<path d="M112.875 29.184C112.875 25.984 113.899 23.52 115.947 21.792C117.995 20.064 121.099 19.2 125.259 19.2V24.864C124.299 25.888 123.499 26.976 122.859 28.128L123.531 28.512C125.579 25.44 127.691 23.136 129.867 21.6C132.107 20 134.763 19.2 137.835 19.2C143.275 19.2 147.051 21.92 149.163 27.36C150.763 24.8 152.811 22.816 155.307 21.408C157.803 19.936 160.619 19.2 163.755 19.2C168.107 19.2 171.563 20.8 174.123 24C176.747 27.2 178.059 31.264 178.059 36.192V61.248C178.059 64 177.003 65.984 174.891 67.2C172.779 68.352 169.515 68.928 165.099 68.928V37.344C165.099 35.168 164.619 33.44 163.659 32.16C162.699 30.88 161.195 30.24 159.147 30.24C157.099 30.24 155.371 30.976 153.963 32.448C152.555 33.856 151.851 36.256 151.851 39.648V61.248C151.851 64 150.795 65.984 148.683 67.2C146.635 68.352 143.435 68.928 139.083 68.928V37.344C139.083 35.168 138.603 33.44 137.643 32.16C136.683 30.88 135.211 30.24 133.227 30.24C128.299 30.24 125.835 33.536 125.835 40.128V61.248C125.835 64 124.779 65.984 122.667 67.2C120.555 68.352 117.291 68.928 112.875 68.928V29.184Z" fill="white"/>
<path d="M209.66 68.928C205.692 68.928 202.012 68.128 198.62 66.528C195.292 64.928 192.636 62.752 190.652 60C188.668 57.248 187.676 54.176 187.676 50.784V38.496C187.676 34.912 188.668 31.648 190.652 28.704C192.7 25.696 195.42 23.36 198.812 21.696C202.204 20.032 205.852 19.2 209.756 19.2C213.596 19.2 217.116 20 220.316 21.6C223.58 23.136 226.14 25.344 227.996 28.224C229.852 31.04 230.78 34.24 230.78 37.824V43.008C230.78 44.544 230.204 45.856 229.052 46.944C227.9 47.968 226.428 48.48 224.636 48.48H200.444V49.824C200.444 52.384 201.212 54.496 202.748 56.16C204.348 57.76 206.684 58.56 209.756 58.56C212.764 58.56 214.972 57.92 216.38 56.64C217.788 55.296 218.492 53.632 218.492 51.648C219.772 51.52 220.732 51.456 221.372 51.456C223.996 51.456 226.012 52 227.42 53.088C228.828 54.176 229.532 55.776 229.532 57.888C229.532 59.616 228.668 61.344 226.94 63.072C225.212 64.8 222.812 66.208 219.74 67.296C216.732 68.384 213.372 68.928 209.66 68.928ZM218.876 39.168V37.824C218.876 35.264 218.012 33.248 216.284 31.776C214.62 30.24 212.412 29.472 209.66 29.472C206.908 29.472 204.668 30.24 202.94 31.776C201.276 33.248 200.444 35.264 200.444 37.824V39.168H218.876Z" fill="white"/>
<path d="M239.438 29.184C239.438 25.984 240.462 23.52 242.51 21.792C244.558 20.064 247.662 19.2 251.822 19.2V24.864C250.862 25.888 250.061 26.976 249.421 28.128L250.094 28.512C252.142 25.44 254.254 23.136 256.43 21.6C258.67 20 261.325 19.2 264.397 19.2C269.837 19.2 273.613 21.92 275.725 27.36C277.325 24.8 279.374 22.816 281.87 21.408C284.366 19.936 287.182 19.2 290.318 19.2C294.67 19.2 298.126 20.8 300.686 24C303.31 27.2 304.621 31.264 304.621 36.192V61.248C304.621 64 303.565 65.984 301.453 67.2C299.341 68.352 296.077 68.928 291.661 68.928V37.344C291.661 35.168 291.181 33.44 290.221 32.16C289.261 30.88 287.758 30.24 285.71 30.24C283.662 30.24 281.934 30.976 280.526 32.448C279.118 33.856 278.414 36.256 278.414 39.648V61.248C278.414 64 277.358 65.984 275.246 67.2C273.198 68.352 269.998 68.928 265.646 68.928V37.344C265.646 35.168 265.166 33.44 264.206 32.16C263.246 30.88 261.773 30.24 259.789 30.24C254.861 30.24 252.398 33.536 252.398 40.128V61.248C252.398 64 251.342 65.984 249.23 67.2C247.118 68.352 243.854 68.928 239.438 68.928V29.184Z" fill="white"/>
<path d="M330.655 68.928C327.519 68.928 324.575 68.32 321.823 67.104C319.135 65.824 316.959 64 315.295 61.632C313.631 59.2 312.799 56.288 312.799 52.896C312.799 49.504 313.695 46.592 315.487 44.16C317.279 41.664 319.647 39.776 322.591 38.496C325.599 37.216 328.863 36.576 332.383 36.576C335.327 36.576 337.919 37.024 340.159 37.92C342.463 38.816 344.607 40.128 346.591 41.856L347.071 41.28C345.727 40.064 344.671 39.2 343.903 38.688V37.44C343.903 35.008 343.007 33.088 341.215 31.68C339.487 30.208 337.023 29.472 333.823 29.472C331.007 29.472 328.511 29.984 326.335 31.008C324.159 32.032 322.399 33.536 321.055 35.52C319.519 35.136 318.207 34.432 317.119 33.408C316.095 32.32 315.583 31.136 315.583 29.856C315.583 27.872 316.447 26.08 318.175 24.48C319.903 22.816 322.239 21.536 325.183 20.64C328.191 19.68 331.487 19.2 335.071 19.2C342.047 19.2 347.423 20.8 351.199 24C354.975 27.2 356.863 31.552 356.863 37.056V60.384C356.863 63.392 355.871 65.568 353.887 66.912C351.967 68.256 348.895 68.928 344.671 68.928V65.184C345.631 64.288 346.399 63.488 346.975 62.784L346.495 62.304C344.383 64.48 342.175 66.144 339.871 67.296C337.567 68.384 334.495 68.928 330.655 68.928ZM334.303 59.52C337.375 59.52 339.775 58.944 341.503 57.792C343.231 56.64 344.095 54.976 344.095 52.8C344.095 50.688 343.199 49.024 341.407 47.808C339.679 46.592 337.311 45.984 334.303 45.984C331.615 45.984 329.471 46.592 327.871 47.808C326.335 49.024 325.567 50.688 325.567 52.8C325.567 54.976 326.335 56.64 327.871 57.792C329.471 58.944 331.615 59.52 334.303 59.52Z" fill="white"/>
<path d="M386.721 68.928C381.281 68.928 377.281 67.36 374.721 64.224C372.161 61.088 370.881 57.056 370.881 52.128V29.76H360.705C360.705 26.496 361.313 24.064 362.529 22.464C363.745 20.864 365.345 20.064 367.329 20.064H371.073V12.48C371.073 9.728 372.129 7.776 374.241 6.624C376.353 5.408 379.553 4.8 383.841 4.8V20.064H396.609C396.609 23.52 395.969 26.016 394.689 27.552C393.409 29.024 391.297 29.76 388.353 29.76H384.033V51.648C384.033 53.76 384.449 55.296 385.281 56.256C386.113 57.152 387.553 57.6 389.601 57.6C391.841 57.6 394.145 56.96 396.513 55.68C397.217 56.32 397.761 57.12 398.145 58.08C398.593 59.04 398.817 60 398.817 60.96C398.817 62.24 398.369 63.488 397.473 64.704C396.577 65.92 395.201 66.944 393.345 67.776C391.553 68.544 389.345 68.928 386.721 68.928Z" fill="white"/>
<path d="M425.566 68.928C421.598 68.928 417.918 68.128 414.526 66.528C411.198 64.928 408.543 62.752 406.559 60C404.575 57.248 403.582 54.176 403.582 50.784V38.496C403.582 34.912 404.575 31.648 406.559 28.704C408.607 25.696 411.327 23.36 414.719 21.696C418.111 20.032 421.759 19.2 425.663 19.2C429.503 19.2 433.023 20 436.223 21.6C439.487 23.136 442.046 25.344 443.902 28.224C445.758 31.04 446.686 34.24 446.686 37.824V43.008C446.686 44.544 446.11 45.856 444.958 46.944C443.806 47.968 442.335 48.48 440.543 48.48H416.35V49.824C416.35 52.384 417.119 54.496 418.655 56.16C420.255 57.76 422.591 58.56 425.663 58.56C428.671 58.56 430.878 57.92 432.286 56.64C433.694 55.296 434.398 53.632 434.398 51.648C435.678 51.52 436.639 51.456 437.279 51.456C439.903 51.456 441.919 52 443.327 53.088C444.735 54.176 445.439 55.776 445.439 57.888C445.439 59.616 444.574 61.344 442.846 63.072C441.118 64.8 438.719 66.208 435.647 67.296C432.639 68.384 429.278 68.928 425.566 68.928ZM434.783 39.168V37.824C434.783 35.264 433.918 33.248 432.19 31.776C430.526 30.24 428.318 29.472 425.566 29.472C422.814 29.472 420.574 30.24 418.846 31.776C417.182 33.248 416.35 35.264 416.35 37.824V39.168H434.783Z" fill="white"/>
<path d="M303.158 103.616V102.944C303.158 101.664 302.726 100.656 301.862 99.92C301.03 99.152 299.926 98.768 298.549 98.768C297.174 98.768 296.054 99.152 295.19 99.92C294.358 100.656 293.942 101.664 293.942 102.944V103.616H303.158Z" fill="white"/>
<path d="M348.902 112.832C350.374 112.832 351.494 112.528 352.262 111.92C353.062 111.312 353.462 110.448 353.462 109.328V102.848C353.462 101.696 353.062 100.816 352.262 100.208C351.494 99.6 350.374 99.296 348.902 99.296C347.558 99.296 346.454 99.616 345.59 100.256C344.758 100.864 344.342 101.648 344.342 102.608V109.52C344.342 110.448 344.758 111.232 345.59 111.872C346.454 112.512 347.558 112.832 348.902 112.832Z" fill="white"/>
<path d="M379.704 102.944V103.616H370.488V102.944C370.488 101.664 370.904 100.656 371.736 99.92C372.6 99.152 373.72 98.768 375.096 98.768C376.472 98.768 377.576 99.152 378.408 99.92C379.272 100.656 379.704 101.664 379.704 102.944Z" fill="white"/>
<path fill-rule="evenodd" clip-rule="evenodd" d="M277.72 81.064C268.883 81.064 261.72 88.2274 261.72 97.064V116.064C261.72 124.901 268.883 132.064 277.72 132.064H429.72C438.557 132.064 445.72 124.901 445.72 116.064V81.064H277.72ZM416.002 116.144C417.282 117.712 419.282 118.496 422.002 118.496C423.314 118.496 424.418 118.304 425.314 117.92C426.242 117.504 426.93 116.992 427.378 116.384C427.826 115.776 428.05 115.152 428.05 114.512C428.05 114.032 427.938 113.552 427.714 113.072C427.522 112.592 427.25 112.192 426.898 111.872C425.714 112.512 424.562 112.832 423.442 112.832C422.418 112.832 421.698 112.608 421.282 112.16C420.866 111.68 420.658 110.912 420.658 109.856V98.912H422.818C424.29 98.912 425.346 98.544 425.986 97.808C426.626 97.04 426.946 95.792 426.946 94.064H420.562V86.432C418.418 86.432 416.818 86.736 415.762 87.344C414.706 87.92 414.178 88.896 414.178 90.272V94.064H412.306C411.314 94.064 410.514 94.464 409.906 95.264C409.298 96.064 408.994 97.28 408.994 98.912H414.082V110.096C414.082 112.56 414.722 114.576 416.002 116.144ZM298.549 118.496C296.566 118.496 294.726 118.096 293.03 117.296C291.366 116.496 290.038 115.408 289.046 114.032C288.054 112.656 287.558 111.12 287.558 109.424V103.28C287.558 101.488 288.054 99.856 289.046 98.384C290.07 96.88 291.43 95.712 293.126 94.88C294.822 94.048 296.646 93.632 298.598 93.632C300.518 93.632 302.278 94.032 303.878 94.832C305.51 95.6 306.79 96.704 307.718 98.144C308.646 99.552 309.11 101.152 309.11 102.944V105.536C309.11 106.304 308.822 106.96 308.246 107.504C307.67 108.016 306.934 108.272 306.038 108.272H293.942V108.944C293.942 110.224 294.326 111.28 295.094 112.112C295.894 112.912 297.062 113.312 298.598 113.312C300.102 113.312 301.206 112.992 301.91 112.352C302.614 111.68 302.965 110.848 302.965 109.856C303.606 109.792 304.086 109.76 304.406 109.76C305.718 109.76 306.726 110.032 307.43 110.576C308.134 111.12 308.486 111.92 308.486 112.976C308.486 113.84 308.054 114.704 307.19 115.568C306.326 116.432 305.126 117.136 303.59 117.68C302.086 118.224 300.406 118.496 298.549 118.496ZM279.477 118.496C278.389 118.496 277.461 118.144 276.693 117.44C275.925 116.704 275.541 115.776 275.541 114.656C275.541 113.536 275.925 112.608 276.693 111.872C277.461 111.136 278.389 110.768 279.477 110.768C280.565 110.768 281.493 111.136 282.261 111.872C283.061 112.608 283.461 113.536 283.461 114.656C283.461 115.776 283.061 116.704 282.261 117.44C281.493 118.144 280.565 118.496 279.477 118.496ZM312.002 118.16C312.706 118.384 313.394 118.496 314.066 118.496C314.77 118.496 315.426 118.368 316.034 118.112C316.642 117.888 317.09 117.568 317.378 117.152L322.466 109.52L327.602 117.152C327.89 117.536 328.37 117.856 329.042 118.112C329.746 118.368 330.45 118.496 331.154 118.496C331.794 118.496 332.434 118.384 333.074 118.16C333.714 117.968 334.242 117.648 334.658 117.2L326.258 105.728L333.938 94.592C333.682 94.304 333.218 94.08 332.546 93.92C331.906 93.728 331.298 93.632 330.722 93.632C328.738 93.632 327.41 94.144 326.738 95.168L321.554 103.184L321.17 102.896L322.178 101.504L318.242 95.168C317.602 94.144 316.354 93.632 314.498 93.632C313.922 93.632 313.266 93.728 312.53 93.92C311.794 94.08 311.298 94.304 311.042 94.592L318.674 105.728L310.322 117.2C310.738 117.648 311.298 117.968 312.002 118.16ZM337.766 98C337.766 96.784 338.278 95.76 339.302 94.928C340.326 94.064 341.83 93.632 343.814 93.632V96.224C343.43 96.704 343.126 97.136 342.902 97.52L343.142 97.712C344.134 96.336 345.238 95.312 346.454 94.64C347.702 93.968 349.254 93.632 351.11 93.632C352.838 93.632 354.374 94 355.718 94.736C357.094 95.472 358.15 96.512 358.886 97.856C359.654 99.168 360.038 100.672 360.038 102.368V109.76C360.038 111.488 359.606 113.024 358.742 114.368C357.91 115.68 356.742 116.704 355.238 117.44C353.766 118.144 352.102 118.496 350.246 118.496C349.158 118.496 347.974 118.272 346.694 117.824C345.446 117.376 344.406 116.752 343.574 115.952L343.382 116.192C343.542 116.448 343.894 116.768 344.438 117.152V123.776C344.438 126.656 342.214 128.096 337.766 128.096V98ZM369.576 117.296C371.272 118.096 373.112 118.496 375.096 118.496C376.952 118.496 378.632 118.224 380.136 117.68C381.672 117.136 382.872 116.432 383.736 115.568C384.6 114.704 385.032 113.84 385.032 112.976C385.032 111.92 384.68 111.12 383.976 110.576C383.272 110.032 382.264 109.76 380.952 109.76C380.632 109.76 380.152 109.792 379.512 109.856C379.512 110.848 379.16 111.68 378.456 112.352C377.752 112.992 376.648 113.312 375.144 113.312C373.608 113.312 372.44 112.912 371.64 112.112C370.872 111.28 370.488 110.224 370.488 108.944V108.272H382.584C383.48 108.272 384.216 108.016 384.792 107.504C385.368 106.96 385.656 106.304 385.656 105.536V102.944C385.656 101.152 385.192 99.552 384.264 98.144C383.336 96.704 382.056 95.6 380.424 94.832C378.824 94.032 377.064 93.632 375.144 93.632C373.192 93.632 371.368 94.048 369.672 94.88C367.976 95.712 366.616 96.88 365.592 98.384C364.6 99.856 364.104 101.488 364.104 103.28V109.424C364.104 111.12 364.6 112.656 365.592 114.032C366.584 115.408 367.912 116.496 369.576 117.296ZM402.993 99.296C401.073 99.296 399.521 99.792 398.337 100.784C397.153 101.776 396.561 103.024 396.561 104.528V114.656C396.561 116.032 396.017 117.024 394.929 117.632C393.873 118.208 392.225 118.496 389.985 118.496V98.624C389.985 97.024 390.513 95.792 391.569 94.928C392.625 94.064 394.193 93.632 396.273 93.632V96.464C395.793 96.976 395.393 97.52 395.073 98.096L395.409 98.288C397.425 95.184 399.937 93.632 402.945 93.632C404.385 93.632 405.473 94.016 406.209 94.784C406.945 95.552 407.313 96.528 407.313 97.712C407.313 98.608 407.073 99.392 406.593 100.064C405.697 99.552 404.497 99.296 402.993 99.296Z" fill="white"/>
<path d="M279.336 118.496C278.248 118.496 277.32 118.144 276.552 117.44C275.784 116.704 275.4 115.776 275.4 114.656C275.4 113.536 275.784 112.608 276.552 111.872C277.32 111.136 278.248 110.768 279.336 110.768C280.424 110.768 281.352 111.136 282.12 111.872C282.92 112.608 283.32 113.536 283.32 114.656C283.32 115.776 282.92 116.704 282.12 117.44C281.352 118.144 280.424 118.496 279.336 118.496Z" fill="#FFD53F"/>
</svg>
